<?xml version="1.0" standalone="no"?>
<!DOCTYPE svg PUBLIC "-//W3C//DTD SVG 20010904//EN"
 "http://www.w3.org/TR/2001/REC-SVG-20010904/DTD/svg10.dtd">
<svg version="1.0" xmlns="http://www.w3.org/2000/svg"
 width="2000.000000pt" height="2000.000000pt" viewBox="0 0 2000.000000 2000.000000"
 preserveAspectRatio="xMidYMid meet">

<g transform="translate(0.000000,2000.000000) scale(0.100000,-0.100000)"
fill="#000000" stroke="none">
<path d="M8165 19657 c-57 -27 -94 -92 -95 -169 0 -38 0 -38 -43 -38 -123 0
-238 -166 -224 -322 9 -103 78 -187 190 -229 33 -13 47 -26 67 -64 33 -65 86
-102 158 -111 80 -10 215 10 279 42 l53 26 31 -26 c47 -40 99 -51 163 -37 93
21 216 116 271 209 23 37 39 39 134 16 222 -55 396 -197 504 -411 l27 -51 -19
-44 c-11 -24 -22 -64 -26 -90 -6 -40 -11 -48 -29 -48 -65 -1 -146 -68 -192
-160 -24 -46 -28 -68 -29 -135 0 -90 18 -136 77 -192 35 -33 125 -83 151 -83
8 0 29 -24 45 -54 24 -41 41 -59 77 -76 42 -20 57 -22 148 -18 75 4 118 12
162 29 33 13 66 24 73 24 7 0 17 7 22 15 8 12 12 11 32 -7 37 -33 63 -43 116
-43 108 0 259 115 324 248 43 87 51 197 20 258 -33 64 -108 124 -153 124 -24
0 -28 5 -34 40 -11 65 -62 156 -114 202 -42 37 -50 52 -64 109 -9 37 -22 80
-28 95 -7 16 -13 35 -15 43 -7 33 -88 189 -133 254 -69 99 -215 252 -231 242
-8 -5 -11 -4 -7 2 6 10 -29 42 -102 93 -19 13 -31 19 -28 13 4 -7 3 -15 -3
-18 -6 -4 -10 -3 -9 2 4 25 -9 37 -88 76 -191 96 -334 128 -597 133 l-199 5
-46 49 c-53 56 -118 89 -177 90 -40 0 -132 -38 -153 -64 -8 -10 -25 -6 -79 21
-79 40 -160 51 -207 30z m146 -46 c28 -11 61 -27 74 -35 l24 -16 -26 -56 c-48
-105 -16 -214 64 -214 37 0 69 26 79 65 12 48 -2 123 -30 165 -32 48 -28 58
38 89 54 26 89 26 142 0 73 -35 136 -123 153 -214 8 -44 8 -44 -27 -56 -41
-13 -107 -71 -128 -110 -17 -34 -18 -81 -2 -97 7 -7 25 -12 40 -12 63 0 128
59 149 133 7 23 16 46 20 51 12 14 87 -35 116 -77 24 -35 28 -50 28 -111 -1
-57 -6 -81 -27 -122 -56 -106 -178 -208 -275 -229 -39 -8 -94 8 -119 36 -17
19 -17 21 7 62 19 33 24 56 23 108 0 82 -21 122 -61 117 -59 -7 -91 -121 -60
-211 15 -45 15 -46 -7 -60 -66 -44 -227 -68 -306 -47 -27 7 -57 25 -77 47 -33
35 -43 63 -21 63 27 0 95 42 111 69 23 39 22 112 -3 160 -43 86 -122 62 -159
-48 -6 -19 -11 -56 -11 -82 0 -59 -7 -60 -80 -16 -104 62 -143 162 -106 274
40 121 150 205 215 164 29 -18 41 -1 41 58 0 39 7 71 23 101 35 72 85 86 178
51z m159 -131 c33 -66 22 -150 -20 -150 -26 0 -50 37 -50 77 0 37 28 113 41
113 5 0 18 -18 29 -40z m620 -121 c46 -5 88 -13 93 -16 5 -3 24 -7 41 -8 92
-6 415 -144 408 -175 -2 -7 3 -10 11 -7 19 7 153 -97 149 -114 -2 -8 0 -11 4
-6 11 10 45 -23 37 -37 -3 -6 -3 -8 2 -4 16 15 140 -134 128 -155 -3 -7 -3 -9
2 -5 11 10 47 -50 39 -64 -4 -6 -3 -8 3 -5 11 7 67 -125 78 -186 7 -34 5 -39
-14 -44 -11 -3 -21 -10 -21 -15 0 -6 -7 -7 -16 -4 -8 3 -13 2 -10 -3 3 -4 -3
-16 -12 -24 -17 -15 -20 -15 -49 11 -20 17 -38 47 -49 82 -9 30 -25 72 -36 93
-10 20 -15 37 -11 37 5 0 3 4 -3 8 -19 12 -83 120 -76 127 4 4 2 5 -3 3 -14
-4 -83 74 -79 90 1 7 0 8 -3 2 -3 -7 -12 -5 -24 6 -10 9 -16 21 -12 27 3 6 1
7 -5 3 -7 -4 -12 -2 -12 5 0 7 -3 9 -7 6 -9 -10 -34 14 -26 26 3 6 1 7 -5 3
-6 -4 -29 6 -51 22 -22 16 -54 35 -70 42 -17 7 -28 17 -24 23 3 6 1 7 -5 3 -6
-4 -28 2 -49 12 -57 29 -188 68 -276 82 -60 10 -77 16 -73 27 3 8 2 12 -3 9
-5 -3 -21 12 -36 34 -15 22 -32 40 -37 40 -5 0 -6 6 -2 13 4 6 4 9 -1 5 -4 -4
-20 -1 -36 7 -15 8 -37 15 -49 15 -11 0 -20 5 -20 10 0 13 103 13 210 -1z
m-260 -69 c0 -46 -71 -130 -111 -130 -45 0 -1 81 66 121 34 21 45 23 45 9z
m377 -156 c300 -66 551 -277 652 -549 l21 -57 -47 6 c-27 4 -62 2 -80 -3 -32
-9 -32 -9 -69 57 -122 223 -307 364 -546 417 l-77 17 7 31 c4 18 7 49 7 69 0
38 0 38 35 32 19 -3 63 -12 97 -20z m-1034 -43 c38 -64 4 -150 -65 -167 -28
-6 -28 -6 -28 45 0 70 34 151 64 151 6 0 19 -13 29 -29z m427 -118 c0 -33 -31
-106 -41 -96 -19 19 -21 98 -4 138 l17 40 14 -30 c7 -16 13 -40 14 -52z m1520
-47 c0 -2 -6 -9 -14 -15 -11 -9 -16 -9 -22 0 -4 7 -3 9 4 5 6 -3 13 -2 17 4 6
10 15 14 15 6z m141 -444 c74 -47 125 -122 144 -209 5 -27 3 -32 -17 -39 -74
-23 -148 -109 -148 -170 0 -38 16 -54 52 -54 66 0 128 59 148 143 13 51 24 56
69 33 141 -74 132 -271 -20 -426 -30 -31 -80 -68 -109 -83 -76 -38 -130 -35
-182 10 -16 14 -16 18 4 57 41 77 23 209 -28 222 -67 17 -105 -101 -68 -210
15 -45 15 -48 -2 -61 -73 -56 -286 -85 -352 -48 -18 10 -42 33 -53 50 l-21 33
29 10 c104 37 141 125 93 221 -61 119 -170 43 -170 -119 0 -61 -1 -63 -22 -56
-122 37 -199 143 -184 252 18 131 137 259 206 222 38 -20 48 -7 49 64 1 154
86 202 239 136 39 -17 52 -27 48 -39 -2 -9 -12 -34 -20 -56 -39 -102 -1 -204
77 -205 79 -1 105 137 42 232 -32 49 -28 62 31 95 55 32 109 30 165 -5z m-221
-132 c31 -61 23 -150 -15 -150 -21 0 -55 49 -55 80 0 37 30 121 41 114 5 -3
18 -23 29 -44z m360 -189 c-17 -61 -63 -111 -101 -111 -34 0 -21 41 30 91 56
57 84 65 71 20z m-644 -206 c9 -13 18 -42 21 -64 5 -36 2 -44 -30 -76 -19 -19
-44 -35 -56 -35 -19 0 -21 6 -21 58 0 64 30 142 54 142 9 0 23 -11 32 -25z
m426 -71 c9 -32 2 -87 -15 -119 -10 -19 -11 -19 -23 10 -16 37 -17 85 -4 120
13 33 31 28 42 -11z"/>
<path d="M14870 19605 c-16 -19 17 -35 69 -35 30 0 41 4 41 15 0 17 -8 21 -62
28 -24 4 -41 1 -48 -8z"/>
<path d="M14740 19601 c-14 -4 -25 -14 -25 -24 0 -20 2 -20 60 -11 35 5 45 10
45 25 0 20 -30 24 -80 10z"/>
<path d="M15027 19583 c-16 -16 -4 -31 38 -48 45 -17 75 -15 75 5 0 16 -101
55 -113 43z"/>
<path d="M15830 19561 c-14 -4 -25 -13 -25 -21 0 -12 12 -14 55 -12 61 3 65 5
57 27 -7 16 -43 18 -87 6z"/>
<path d="M19230 19554 c-14 -9 -49 -40 -78 -68 -51 -49 -53 -50 -85 -37 -161
64 -184 65 -174 5 3 -19 20 -66 38 -104 l31 -69 -63 -76 c-57 -69 -61 -77 -46
-92 14 -14 26 -14 108 -4 50 6 92 10 94 9 1 -2 17 -25 35 -53 43 -65 70 -95
86 -95 19 0 41 48 58 121 8 34 20 65 25 69 6 3 54 16 106 29 76 18 95 26 95
41 0 19 -45 52 -129 94 l-53 27 8 77 c13 124 12 137 -11 140 -11 1 -31 -5 -45
-14z m15 -119 l-6 -63 -50 20 -50 21 53 54 c29 29 54 49 56 43 3 -7 1 -40 -3
-75z m-238 -7 c29 -12 53 -24 53 -27 0 -3 -16 -24 -34 -46 l-34 -40 -26 55
c-26 56 -32 80 -19 80 4 0 31 -10 60 -22z m168 -75 l56 -28 -6 -50 c-10 -81
-11 -81 -72 -94 -31 -6 -62 -11 -69 -11 -12 0 -64 83 -64 102 0 12 81 108 91
108 5 0 34 -12 64 -27z m160 -80 c30 -15 55 -30 55 -33 0 -7 -91 -30 -116 -30
-8 0 -14 10 -14 23 0 24 10 67 16 67 2 0 28 -12 59 -27z m-318 -114 c-17 -9
-107 -20 -107 -13 0 3 16 26 36 50 l37 45 23 -38 c16 -27 19 -40 11 -44z m183
-25 c0 -28 -22 -104 -31 -104 -11 0 -72 90 -65 97 5 5 61 20 84 22 6 1 12 -6
12 -15z"/>
<path d="M14603 19534 c-35 -27 -43 -54 -17 -54 21 0 84 49 84 66 0 22 -32 16
-67 -12z"/>
<path d="M15965 19551 c-10 -18 3 -30 46 -41 43 -12 69 -8 69 10 0 20 -104 48
-115 31z"/>
<path d="M15688 19519 c-65 -34 -43 -60 27 -33 31 11 45 22 45 35 0 24 -24 24
-72 -2z"/>
<path d="M15170 19505 c0 -15 68 -55 95 -55 29 0 15 30 -25 50 -47 24 -70 26
-70 5z"/>
<path d="M16110 19486 c0 -17 79 -78 92 -70 17 11 7 34 -25 58 -37 29 -67 34
-67 12z"/>
<path d="M15558 19439 c-40 -33 -49 -59 -20 -59 28 1 86 55 79 74 -9 22 -16
20 -59 -15z"/>
<path d="M14485 19421 c-26 -38 -27 -61 -2 -61 13 0 67 72 67 89 0 25 -39 8
-65 -28z"/>
<path d="M3505 19426 c-105 -47 -113 -195 -14 -248 93 -50 203 15 203 122 0
56 -28 100 -78 124 -41 19 -71 20 -111 2z m96 -42 c43 -22 64 -74 46 -116 -18
-42 -37 -58 -81 -65 -31 -5 -40 -1 -71 30 -41 41 -46 81 -14 121 36 46 73 55
120 30z"/>
<path d="M15310 19426 c0 -18 61 -66 83 -66 28 0 19 27 -16 54 -38 29 -67 34
-67 12z"/>
<path d="M12990 19408 c-47 -31 -81 -102 -88 -183 -4 -50 -9 -66 -23 -70 -69
-22 -88 -83 -44 -141 21 -27 25 -44 25 -101 0 -89 21 -130 84 -162 82 -42 244
-30 382 29 l46 20 -36 44 c-20 25 -36 46 -36 49 0 3 12 8 28 12 15 3 42 18 60
31 29 22 32 30 32 76 0 45 -4 54 -40 90 -22 22 -40 42 -40 43 0 1 27 13 60 25
l60 22 -20 29 c-37 51 -144 139 -210 172 -88 44 -188 50 -240 15z m-103 -349
l-14 -34 -14 29 c-12 26 -11 30 11 48 21 17 26 18 28 5 2 -8 -3 -30 -11 -48z
m407 55 c12 -4 14 -10 6 -18 -5 -7 -15 -47 -23 -90 -12 -73 -14 -76 -29 -59
-14 16 -15 28 -5 96 11 77 16 84 51 71z m-88 -59 c-8 -42 -18 -44 -41 -9 -19
29 -19 30 15 42 32 12 34 10 26 -33z m174 -45 c0 -23 -7 -35 -32 -50 -18 -11
-36 -20 -39 -20 -4 0 0 28 8 62 8 34 12 71 9 82 -4 16 2 14 24 -12 19 -21 30
-43 30 -62z"/>
<path d="M14024 19409 c-10 -17 7 -26 59 -32 37 -4 50 -1 54 10 3 8 0 19 -8
24 -20 12 -97 11 -105 -2z"/>
<path d="M13913 19388 c-41 -19 -54 -40 -34 -52 16 -11 102 34 99 51 -4 24
-18 24 -65 1z"/>
<path d="M16235 19390 c-11 -17 37 -100 57 -100 24 0 22 17 -5 64 -24 42 -41
54 -52 36z"/>
<path d="M14180 19375 c0 -15 87 -58 101 -49 20 12 7 36 -26 50 -44 18 -75 18
-75 -1z"/>
<path d="M7220 19360 c-359 -12 -778 -38 -975 -61 -49 -6 -110 -12 -135 -15
-343 -33 -694 -122 -810 -204 -33 -23 -75 -95 -65 -110 3 -6 2 -10 -4 -10 -18
0 -43 -145 -48 -280 -3 -86 1 -195 11 -303 21 -217 21 -257 0 -257 -8 0 -12
-4 -9 -10 3 -5 0 -7 -7 -5 -18 7 -141 -72 -133 -85 3 -5 0 -7 -8 -5 -16 7
-117 -96 -117 -119 0 -8 9 -20 20 -26 11 -6 20 -8 20 -4 0 3 6 1 14 -5 17 -14
395 -14 671 0 99 6 196 9 216 9 150 -3 914 61 1139 96 19 2 49 6 65 8 207 24
465 88 465 116 0 4 8 10 19 13 24 6 96 149 88 177 -3 11 -2 18 2 15 5 -2 13
33 20 78 13 96 15 373 2 381 -4 3 -6 16 -4 30 17 84 -88 539 -120 519 -6 -3
-7 -1 -3 5 10 17 -45 62 -74 60 -14 -1 -122 -4 -240 -8z"/>
<path d="M12674 19325 c-18 -44 -18 -98 1 -135 16 -31 92 -67 120 -57 29 12
15 33 -30 45 -60 16 -73 43 -57 113 15 65 15 69 -4 69 -8 0 -22 -16 -30 -35z"/>
<path d="M15475 19351 c-3 -6 -14 -11 -24 -11 -14 0 -18 -9 -19 -45 0 -31 4
-45 13 -45 8 0 17 5 20 10 4 6 12 4 22 -5 23 -24 47 -1 30 29 -6 11 -12 32
-12 45 0 26 -19 39 -30 22z"/>
<path d="M14411 19304 l-12 -27 -23 22 c-25 23 -56 28 -56 8 0 -16 71 -87 88
-87 13 0 52 71 52 95 0 25 -36 17 -49 -11z"/>
<path d="M13794 19280 c-24 -37 -27 -70 -6 -70 15 0 64 81 58 96 -9 24 -24 16
-52 -26z"/>
<path d="M16287 19243 c-4 -3 -7 -31 -7 -60 0 -46 3 -54 18 -51 13 2 18 15 20
61 2 43 0 57 -11 57 -7 0 -17 -3 -20 -7z"/>
<path d="M15535 19211 c-8 -14 36 -101 51 -101 24 0 25 21 4 65 -21 43 -42 56
-55 36z"/>
<path d="M14435 19200 c-9 -14 26 -98 43 -105 23 -9 25 27 4 71 -22 44 -35 53
-47 34z"/>
<path d="M15396 19176 c-7 -39 9 -89 26 -84 8 3 13 27 15 61 2 50 0 57 -16 57
-13 0 -21 -10 -25 -34z"/>
<path d="M16956 19182 c-3 -5 1 -9 9 -9 8 0 12 4 9 9 -3 4 -7 8 -9 8 -2 0 -6
-4 -9 -8z"/>
<path d="M13741 19161 c-6 -10 -13 -37 -17 -60 -6 -36 -4 -41 13 -41 15 0 22
11 31 51 7 28 10 55 6 60 -9 14 -23 10 -33 -10z"/>
<path d="M14365 19168 c-3 -7 -6 -33 -7 -57 -3 -51 16 -67 32 -26 16 41 13 95
-5 95 -9 0 -18 -6 -20 -12z"/>
<path d="M18076 19098 c3 -5 10 -6 15 -3 13 9 11 12 -6 12 -8 0 -12 -4 -9 -9z"/>
<path d="M16232 19044 c-21 -43 -22 -64 -2 -64 14 0 60 72 60 92 0 36 -36 19
-58 -28z"/>
<path d="M12649 19064 c-82 -25 -122 -89 -86 -139 20 -26 40 -10 32 25 -9 39
23 66 94 81 79 16 81 17 81 34 0 19 -57 19 -121 -1z"/>
<path d="M15590 19041 c0 -16 -4 -33 -10 -36 -16 -10 -12 -45 5 -45 39 0 61
101 23 108 -14 3 -18 -3 -18 -27z"/>
<path d="M14486 19048 c-3 -7 -7 -34 -11 -60 -6 -44 -4 -48 14 -48 15 0 22 9
26 34 4 18 5 44 3 56 -3 26 -26 39 -32 18z"/>
<path d="M15430 19044 c0 -17 58 -74 77 -74 27 0 23 24 -8 56 -35 36 -69 45
-69 18z"/>
<path d="M17330 19019 c-154 -25 -346 -94 -380 -136 -28 -35 -25 -59 10 -95
25 -24 36 -29 58 -23 15 4 30 12 34 18 4 7 8 9 8 5 0 -4 37 7 82 23 234 86
466 77 590 -21 15 -12 33 -18 39 -14 7 4 9 3 6 -3 -4 -5 8 -23 25 -39 35 -33
118 -155 137 -202 7 -18 18 -29 24 -25 6 3 7 1 3 -5 -4 -7 4 -48 19 -92 14
-45 25 -90 25 -101 0 -11 4 -18 9 -15 5 4 7 -3 4 -13 -3 -13 4 -29 21 -46 23
-23 29 -25 43 -13 12 9 15 9 9 1 -13 -23 13 -14 46 16 35 31 35 19 4 166 -19
89 -112 298 -129 288 -6 -3 -7 -1 -3 5 4 7 -4 23 -17 36 -14 14 -23 27 -21 29
9 9 -117 128 -170 162 -137 87 -307 121 -476 94z"/>
<path d="M14360 18996 c0 -27 35 -76 55 -76 24 0 28 21 8 43 -11 12 -23 30
-26 40 -10 26 -37 21 -37 -7z"/>
<path d="M4214 18989 c-12 -20 12 -30 62 -27 37 2 50 7 52 21 3 14 -5 17 -52
17 -30 0 -58 -5 -62 -11z"/>
<path d="M4376 18993 c-16 -16 -2 -32 38 -42 60 -15 76 -14 76 4 0 21 -98 54
-114 38z"/>
<path d="M4108 18973 c-36 -10 -48 -18 -48 -33 0 -24 11 -24 65 -6 37 13 57
38 38 49 -4 2 -29 -2 -55 -10z"/>
<path d="M2888 18963 c-30 -3 -38 -9 -38 -24 0 -15 7 -19 33 -19 51 0 78 11
75 29 -4 17 -15 20 -70 14z"/>
<path d="M3011 18956 c-17 -20 14 -36 68 -36 34 0 41 3 41 20 0 16 -7 20 -34
20 -19 0 -41 2 -49 5 -7 3 -19 -1 -26 -9z"/>
<path d="M16146 18921 c-36 -37 -41 -61 -11 -61 17 0 77 69 72 83 -7 22 -24
16 -61 -22z"/>
<path d="M4527 18943 c-13 -13 -6 -21 37 -47 53 -31 66 -32 66 -8 0 11 -16 27
-39 40 -41 23 -53 26 -64 15z"/>
<path d="M2744 18921 c-48 -22 -62 -39 -40 -47 24 -9 107 26 104 44 -4 23 -19
23 -64 3z"/>
<path d="M3164 18929 c-9 -15 5 -25 55 -37 48 -12 61 -9 61 13 0 24 -102 46
-116 24z"/>
<path d="M3958 18904 c-39 -25 -51 -54 -23 -54 28 0 95 49 89 65 -8 20 -22 18
-66 -11z"/>
<path d="M3316 18881 c-11 -17 76 -66 100 -57 24 9 15 25 -26 46 -42 22 -66
25 -74 11z"/>
<path d="M2603 18834 c-33 -25 -45 -64 -20 -64 21 1 90 66 83 79 -11 17 -28
13 -63 -15z"/>
<path d="M4655 18850 c-9 -14 56 -91 74 -88 25 5 22 22 -10 61 -30 37 -52 46
-64 27z"/>
<path d="M3827 18804 c-30 -28 -35 -39 -26 -50 13 -16 33 -8 68 30 14 14 21
31 18 40 -9 23 -18 20 -60 -20z"/>
<path d="M3454 18808 c-9 -14 65 -79 85 -76 29 6 21 28 -20 57 -46 34 -54 36
-65 19z"/>
<path d="M2494 18710 c-24 -37 -27 -70 -6 -70 13 0 62 76 62 95 0 28 -30 15
-56 -25z"/>
<path d="M4750 18715 c0 -27 40 -95 55 -95 19 0 19 20 -1 70 -16 40 -54 58
-54 25z"/>
<path d="M3715 18680 c-23 -32 -26 -43 -16 -53 10 -9 20 -4 47 27 19 22 34 45
34 53 0 27 -38 12 -65 -27z"/>
<path d="M3580 18692 c0 -23 65 -86 79 -78 17 11 13 23 -20 61 -34 38 -59 45
-59 17z"/>
<path d="M1815 18621 c-45 -7 -56 -34 -16 -39 44 -7 93 8 89 26 -4 19 -17 22
-73 13z"/>
<path d="M19237 18623 c-3 -4 -8 -33 -12 -63 l-7 -54 -32 37 c-17 20 -36 37
-43 37 -26 0 -24 -23 6 -60 17 -21 31 -41 31 -45 0 -3 -30 -4 -67 -3 -54 2
-68 0 -68 -12 0 -10 19 -18 60 -25 l60 -10 -47 -28 c-47 -27 -64 -57 -33 -57
8 0 40 14 71 31 l55 32 -3 -74 c-2 -60 0 -74 12 -74 11 0 18 19 25 67 l10 66
34 -44 c19 -25 39 -43 45 -41 22 7 16 34 -15 73 l-31 39 57 3 c47 3 56 6 53
20 -2 11 -16 19 -42 22 l-39 5 42 23 c26 15 41 30 41 43 0 27 -13 24 -81 -16
l-60 -35 3 71 c2 48 -1 73 -9 76 -6 2 -13 0 -16 -4z"/>
<path d="M1936 18612 c-10 -17 11 -29 62 -36 47 -6 52 -5 52 12 0 12 -9 22
-22 26 -33 8 -86 7 -92 -2z"/>
<path d="M1668 18593 c-28 -8 -48 -20 -48 -28 0 -22 13 -25 58 -12 52 16 68
30 50 44 -9 7 -27 6 -60 -4z"/>
<path d="M2416 18565 c-10 -24 -15 -49 -11 -55 13 -21 33 -8 49 33 21 55 20
67 -3 67 -13 0 -24 -14 -35 -45z"/>
<path d="M2097 18583 c-16 -16 -4 -31 36 -47 55 -21 67 -20 67 3 0 12 -14 23
-43 35 -48 18 -51 19 -60 9z"/>
<path d="M3630 18550 c-33 -64 -7 -101 28 -40 21 36 30 38 38 5 8 -32 26 -46
44 -35 13 8 11 17 -10 57 -19 37 -31 49 -52 51 -23 3 -30 -3 -48 -38z"/>
<path d="M4815 18538 c10 -57 22 -79 40 -72 18 7 17 1 4 64 -8 40 -15 50 -31
50 -18 0 -19 -4 -13 -42z"/>
<path d="M1527 18525 c-36 -25 -51 -65 -24 -65 21 0 91 66 83 78 -10 17 -16
15 -59 -13z"/>
<path d="M2237 18513 c-4 -3 -7 -10 -7 -14 0 -13 90 -70 100 -64 20 12 9 33
-30 59 -41 27 -52 30 -63 19z"/>
<path d="M2372 18435 c-7 -14 -12 -39 -12 -55 0 -25 4 -30 25 -30 14 0 25 -4
25 -9 0 -5 7 -12 15 -15 24 -9 29 21 9 52 -11 15 -19 38 -19 52 0 34 -28 37
-43 5z"/>
<path d="M942 18405 c-110 -83 -492 -493 -573 -614 -35 -54 -34 -71 6 -84 46
-14 722 -13 835 2 52 6 99 16 104 21 18 18 -7 65 -64 124 l-58 61 51 25 c45
22 52 29 52 55 0 27 -11 37 -122 110 l-123 80 6 86 c7 115 -11 179 -51 179 -2
0 -30 -20 -63 -45z m72 -126 l-9 -82 -240 -156 c-132 -86 -253 -165 -270 -176
l-30 -19 20 25 c122 145 373 408 460 481 56 48 60 50 68 30 6 -13 6 -53 1
-103z m133 -205 c62 -41 111 -79 108 -84 -3 -5 -28 -16 -55 -25 l-50 -17 -45
38 c-55 44 -17 54 -369 -90 -143 -58 -261 -104 -263 -102 -7 7 532 356 550
356 6 0 61 -34 124 -76z m38 -217 c67 -63 87 -88 79 -97 -15 -15 -608 -36
-717 -26 l-79 8 244 98 c133 54 263 107 288 118 54 23 51 25 185 -101z"/>
<path d="M3586 18433 c-17 -60 -18 -93 -2 -99 23 -9 26 -3 33 60 5 47 3 56
-10 56 -9 0 -18 -8 -21 -17z"/>
<path d="M3737 18434 c-4 -4 -7 -32 -7 -61 0 -47 3 -54 18 -51 14 3 17 14 17
57 0 50 -11 72 -28 55z"/>
<path d="M1426 18384 c-9 -26 -13 -50 -10 -55 13 -21 33 -5 48 38 20 59 20 63
-3 63 -14 0 -24 -13 -35 -46z"/>
<path d="M4844 18417 c-3 -8 -4 -34 -2 -58 2 -33 8 -45 21 -47 16 -3 18 3 15
54 -3 56 -21 83 -34 51z"/>
<path d="M2357 18304 c-4 -4 -7 -32 -7 -61 0 -47 3 -54 18 -51 14 3 17 14 17
57 0 50 -11 72 -28 55z"/>
<path d="M2465 18290 c-9 -15 37 -94 58 -98 24 -5 22 28 -5 68 -25 37 -43 47
-53 30z"/>
<path d="M3604 18288 c-11 -17 19 -38 55 -38 42 0 65 12 59 30 -5 15 -106 22
-114 8z"/>
<path d="M1413 18264 c-11 -28 10 -98 31 -102 17 -4 18 0 12 49 -4 29 -9 56
-12 61 -8 13 -24 9 -31 -8z"/>
<path d="M2355 18140 c-8 -13 2 -79 14 -99 5 -8 16 -11 25 -8 12 5 14 14 9 39
-13 70 -31 95 -48 68z"/>
<path d="M2532 18093 c2 -44 7 -58 18 -58 12 0 15 13 15 55 0 45 -3 55 -18 58
-16 3 -18 -3 -15 -55z"/>
<path d="M2480 18001 c-8 -6 -27 -7 -42 -4 -34 7 -40 -20 -7 -37 36 -20 103 7
92 36 -6 16 -22 18 -43 5z"/>
<path d="M19222 17955 c-18 -8 -44 -23 -58 -34 -25 -19 -25 -19 -82 7 -74 34
-163 41 -207 17 -36 -19 -75 -80 -75 -116 0 -35 -11 -45 -52 -53 -143 -26
-242 -222 -176 -346 28 -52 112 -116 173 -131 32 -8 44 -18 57 -47 28 -59 76
-85 166 -90 92 -5 176 9 248 42 46 21 54 23 65 10 26 -32 71 -46 128 -42 158
11 331 187 331 336 0 93 -64 173 -153 191 -28 6 -32 12 -39 50 -11 62 -60 133
-124 177 -45 31 -65 38 -112 41 -36 2 -69 -2 -90 -12z m146 -44 c101 -52 182
-199 119 -215 -69 -17 -146 -109 -134 -158 21 -80 174 -11 193 87 7 42 29 46
80 14 46 -28 74 -77 74 -131 0 -166 -271 -365 -375 -275 l-26 22 21 40 c27 52
24 136 -7 167 -65 65 -132 -63 -88 -168 l15 -35 -44 -20 c-84 -37 -224 -51
-283 -28 -28 10 -83 57 -83 69 0 4 18 12 39 19 87 26 118 117 66 194 -56 82
-144 27 -153 -94 -5 -71 -14 -73 -92 -26 -111 65 -129 182 -46 291 14 19 46
44 71 56 40 19 49 21 76 9 25 -10 32 -10 39 1 5 8 6 18 4 22 -3 4 -2 29 2 56
10 66 56 112 113 112 39 0 146 -34 155 -49 3 -4 -4 -25 -14 -47 -46 -89 -11
-183 67 -184 71 0 97 102 47 187 -22 37 -23 47 -12 60 35 43 117 54 176 24z
m-188 -120 c27 -67 -7 -135 -49 -97 -25 23 -27 63 -4 110 18 40 32 36 53 -13z
m313 -184 c-21 -36 -82 -72 -97 -57 -13 13 36 73 76 93 40 19 46 8 21 -36z
m-588 -147 c8 -16 15 -38 15 -49 0 -28 -39 -69 -74 -77 l-29 -7 5 56 c5 58 29
107 53 107 8 0 21 -13 30 -30z m395 -81 c0 -30 -19 -79 -30 -79 -19 0 -25 75
-9 117 10 27 11 27 25 9 8 -11 14 -32 14 -47z"/>
<path d="M8225 17890 c-809 -38 -2086 -139 -3880 -306 -1315 -122 -3115 -300
-3124 -309 -2 -3 8 -162 24 -353 l28 -347 31 -28 c63 -55 57 -58 151 73 104
144 195 243 220 238 23 -4 68 -86 142 -253 31 -71 57 -131 58 -132 0 -1 72 35
160 79 189 96 288 138 324 138 l26 0 -7 -117 c-4 -65 -5 -119 -3 -122 3 -2
345 26 762 63 4838 423 5788 506 5809 506 l26 0 -6 93 c-3 50 -11 164 -17 252
-12 188 -35 393 -52 461 -10 40 -17 49 -42 57 -43 12 -420 17 -630 7z m-36
-319 c8 -5 11 -16 8 -26 -6 -13 -15 -15 -49 -10 -36 5 -49 2 -82 -20 -40 -27
-65 -23 -53 9 17 43 134 74 176 47z m-304 -64 c29 -22 9 -39 -38 -32 -35 5
-48 2 -81 -20 -41 -28 -63 -23 -52 12 14 45 127 71 171 40z m-280 -57 c17 -7
25 -16 23 -28 -3 -14 -12 -16 -53 -14 -39 3 -56 -1 -77 -17 -28 -23 -44 -26
-52 -12 -12 18 8 44 48 62 47 21 73 23 111 9z m685 -5 c18 -9 30 -24 30 -35 0
-24 -16 -25 -59 -4 -19 9 -43 14 -57 10 -13 -3 -35 -9 -49 -12 -21 -5 -25 -3
-25 14 0 12 8 26 18 31 26 16 109 13 142 -4z m-255 -25 c17 -7 25 -16 23 -28
-3 -14 -12 -16 -53 -14 -39 3 -56 -1 -77 -17 -29 -23 -44 -26 -53 -10 -15 23
62 78 112 79 12 0 34 -5 48 -10z m-281 -83 c33 -24 15 -41 -40 -38 -38 2 -56
-3 -76 -18 -41 -32 -70 -22 -49 17 23 43 126 67 165 39z m-4599 -57 c42 -16
25 -35 -35 -37 -36 -1 -62 -8 -81 -22 -36 -27 -51 -27 -47 1 7 50 99 82 163
58z m4766 -30 c21 -12 26 -40 7 -41 -7 0 -33 0 -58 1 -35 1 -50 -4 -64 -19
-24 -26 -56 -28 -56 -3 0 51 114 92 171 62z m-5073 -26 c13 -4 22 -14 22 -25
0 -16 -8 -19 -54 -19 -38 0 -60 -6 -79 -20 -40 -31 -69 -20 -48 18 21 39 99
62 159 46z m-249 -79 c23 -22 4 -34 -47 -28 -42 5 -52 2 -80 -22 -33 -28 -52
-26 -52 4 0 53 135 88 179 46z m669 5 c32 -19 44 -50 20 -50 -7 0 -32 7 -56
15 -37 13 -47 13 -77 1 -29 -12 -36 -12 -45 -1 -38 46 92 75 158 35z m-240
-26 c8 -2 12 -12 10 -21 -3 -14 -14 -18 -60 -18 -45 0 -61 -5 -81 -24 -25 -23
-47 -22 -47 3 0 20 46 58 82 66 30 7 62 5 96 -6z m-284 -84 c5 -5 6 -16 3 -24
-5 -12 -16 -14 -52 -9 -38 5 -51 2 -75 -16 -39 -28 -62 -28 -58 2 5 34 82 70
133 62 22 -3 44 -10 49 -15z m162 -91 c25 -20 -1 -38 -47 -32 -31 5 -47 1 -69
-16 -52 -38 -90 -19 -49 25 39 42 128 54 165 23z"/>
<path d="M615 17049 l-7 -62 -38 44 c-31 36 -41 42 -51 31 -14 -13 -14 -13 29
-71 l23 -31 -71 0 c-63 0 -71 -2 -68 -17 2 -14 15 -19 61 -21 31 -2 57 -6 57
-10 0 -4 -20 -18 -45 -31 -43 -23 -56 -43 -35 -56 6 -4 34 7 64 24 29 17 56
31 60 31 3 0 3 -32 0 -71 -7 -66 -6 -71 12 -67 15 3 21 16 28 67 l8 65 35 -42
c19 -23 41 -42 49 -42 23 0 15 33 -16 70 -17 19 -30 37 -30 40 0 4 25 5 55 2
50 -4 55 -3 55 16 0 17 -7 21 -42 24 l-43 3 43 28 c41 27 56 57 27 57 -8 0
-37 -13 -65 -30 -28 -16 -54 -30 -57 -30 -3 0 -2 32 1 70 7 65 6 70 -12 70
-17 0 -21 -9 -27 -61z"/>
<path d="M9588 16892 c-29 -61 -37 -71 -78 -87 -144 -57 -146 -92 -9 -126 46
-11 47 -11 64 -74 31 -117 54 -121 109 -16 34 65 38 69 98 92 53 21 63 29 63
49 0 21 -10 29 -65 51 l-64 25 -17 66 c-20 79 -25 88 -49 88 -14 0 -29 -19
-52 -68z m72 -71 c10 -39 16 -45 61 -64 27 -12 49 -24 49 -27 0 -3 -22 -14
-48 -23 -43 -16 -51 -24 -77 -75 l-28 -57 -14 50 c-20 74 -24 78 -89 94 l-59
15 67 30 c64 28 69 33 90 84 24 59 27 57 48 -27z"/>
<path d="M18104 16739 c-10 -16 4 -24 81 -49 147 -49 255 -108 338 -189 93
-88 132 -164 145 -276 5 -44 11 -60 22 -60 12 0 15 14 14 72 0 61 -5 82 -36
145 -73 146 -236 271 -452 343 -83 28 -102 30 -112 14z"/>
<path d="M16384 16185 c-9 -22 2 -32 41 -39 61 -12 207 -92 259 -143 50 -49
96 -130 96 -170 0 -12 5 -34 10 -49 10 -24 13 -26 25 -13 12 12 13 25 4 77
-25 142 -152 260 -353 328 -82 28 -75 28 -82 9z"/>
<path d="M10040 16041 c-25 -16 -61 -46 -79 -65 -19 -20 -40 -36 -46 -36 -6 0
-42 13 -80 30 -81 34 -111 37 -119 12 -6 -19 20 -106 49 -161 9 -18 14 -38 12
-45 -3 -6 -28 -39 -57 -74 -63 -76 -63 -97 0 -97 25 0 70 3 100 7 l55 8 45
-67 c25 -36 53 -71 63 -77 28 -17 53 21 72 109 15 67 20 76 44 81 160 36 181
43 181 64 0 21 -37 48 -128 94 l-52 27 7 67 c18 158 9 174 -67 123z m36 -48
c-2 -16 -7 -49 -11 -75 l-6 -47 -42 19 c-23 10 -43 23 -45 28 -2 8 94 102 105
102 2 0 2 -12 -1 -27z m-247 -64 c28 -12 51 -27 51 -33 0 -7 -15 -27 -34 -45
l-34 -33 -26 57 c-39 86 -38 87 43 54z m166 -76 c60 -29 62 -34 47 -118 -7
-38 -10 -40 -57 -52 -85 -19 -89 -18 -118 36 -15 27 -27 52 -27 55 0 7 90 106
96 106 2 0 28 -12 59 -27z m173 -85 l57 -33 -70 -16 c-39 -9 -71 -15 -73 -14
-7 6 11 95 19 95 5 0 35 -15 67 -32z m-338 -67 c22 -45 24 -43 -59 -56 -35 -6
-42 -5 -35 6 9 16 68 89 71 89 2 0 12 -18 23 -39z m184 -113 c-8 -34 -16 -64
-18 -66 -4 -3 -48 58 -70 95 -4 8 8 15 36 21 70 16 68 18 52 -50z"/>
<path d="M18696 16028 c-2 -7 -11 -58 -20 -113 -9 -55 -23 -113 -32 -129 -17
-35 -4 -57 24 -40 36 23 76 280 45 291 -7 3 -15 -1 -17 -9z"/>
<path d="M5705 16023 c-337 -28 -634 -57 -651 -64 -17 -6 -22 -19 -27 -71 -4
-35 -13 -119 -22 -188 -27 -220 -87 -733 -130 -1115 -42 -367 -74 -658 -119
-1090 -21 -194 -44 -453 -51 -560 -4 -49 -8 -111 -10 -137 -7 -91 -38 -83 342
-81 184 1 337 4 339 6 3 2 39 271 120 887 3 25 7 59 9 75 94 699 241 1911 263
2170 15 181 17 175 -63 168z"/>
<path d="M17332 15858 c8 -103 39 -177 104 -247 59 -64 168 -129 197 -118 29
11 19 25 -37 50 -61 28 -137 94 -172 148 -30 48 -54 132 -54 191 0 42 -3 48
-21 48 -21 0 -21 -4 -17 -72z"/>
<path d="M16806 15682 c-3 -5 -8 -29 -12 -53 -3 -24 -13 -70 -21 -102 -17 -61
-13 -78 15 -61 32 20 62 211 35 221 -6 2 -14 0 -17 -5z"/>
<path d="M15830 15553 c0 -64 29 -139 72 -184 33 -35 96 -76 131 -84 23 -6 27
-4 27 13 0 13 -11 24 -32 33 -42 17 -115 84 -135 123 -9 17 -19 58 -22 91 -5
46 -10 61 -23 63 -16 3 -18 -5 -18 -55z"/>
<path d="M3859 15299 c-727 -500 -1212 -867 -1254 -950 -16 -29 -15 -31 9 -50
14 -11 364 -300 778 -641 l752 -621 28 34 c16 19 47 61 70 94 23 33 61 89 85
124 76 111 160 258 173 306 11 41 11 47 -6 67 -33 37 -393 268 -902 578 -160
98 -200 126 -190 136 7 6 228 134 491 284 277 157 477 277 474 284 -34 87
-233 536 -238 536 -4 0 -125 -82 -270 -181z"/>
<path d="M6194 15287 c-128 -179 -167 -242 -216 -341 -44 -92 -47 -124 -15
-153 48 -45 428 -287 900 -573 103 -63 187 -118 187 -122 0 -4 -218 -131 -485
-283 -266 -152 -486 -279 -488 -283 -2 -4 42 -113 99 -242 57 -129 110 -252
119 -273 l15 -38 158 107 c868 593 1382 985 1382 1053 0 11 -24 31 -510 432
-157 129 -455 375 -662 547 -208 172 -379 312 -380 312 -2 0 -49 -64 -104
-143z"/>
<path d="M9680 15042 c-106 -53 -105 -192 2 -248 63 -33 145 -3 181 66 34 66
0 157 -69 186 -44 18 -72 18 -114 -4z m101 -38 c85 -44 62 -165 -34 -181 -32
-5 -41 -1 -72 30 -41 41 -46 81 -14 121 36 46 73 55 120 30z"/>
<path d="M11277 14742 c-3 -4 -9 -32 -13 -62 l-7 -54 -33 38 c-22 25 -39 36
-49 33 -21 -9 -19 -19 15 -62 17 -21 30 -40 30 -42 0 -2 -30 -3 -67 -1 -55 2
-68 0 -71 -13 -2 -13 10 -18 60 -25 l63 -9 -47 -28 c-47 -27 -64 -57 -33 -57
8 0 40 14 70 31 l54 30 -2 -73 c-2 -59 1 -73 13 -73 8 0 16 7 17 15 1 8 5 37
8 65 l7 50 37 -44 c23 -27 42 -41 49 -37 19 11 14 29 -18 66 -16 19 -29 39
-30 44 0 5 23 6 51 4 38 -4 52 -2 56 9 7 19 -1 25 -44 33 l-38 6 43 22 c40 22
53 44 32 57 -9 6 -35 -7 -108 -54 l-24 -15 4 74 c2 49 -1 74 -9 77 -6 2 -14 0
-16 -5z"/>
<path d="M19555 14683 c-37 -10 -83 -53 -95 -89 -46 -139 124 -244 228 -141
81 81 34 219 -79 232 -19 2 -43 1 -54 -2z m83 -53 c33 -20 52 -54 52 -92 0
-32 -63 -88 -98 -88 -39 0 -88 41 -97 80 -9 39 18 88 58 105 42 19 46 18 85
-5z"/>
<path d="M9134 14418 c-82 -86 -167 -205 -158 -219 4 -7 3 -9 -3 -6 -6 4 -22
-11 -37 -33 -14 -22 -30 -40 -34 -40 -4 0 -25 16 -47 36 -59 53 -91 74 -100
66 -5 -4 -5 -2 -2 4 4 7 -5 20 -21 30 -15 10 -33 24 -40 31 -29 28 -132 104
-132 96 0 -4 -5 -1 -10 7 -9 13 -12 12 -25 -5 -30 -39 -58 -183 -77 -389 -6
-76 -17 -144 -24 -150 -6 -7 -92 -27 -190 -45 -99 -19 -185 -37 -192 -40 -13
-7 -11 -10 165 -263 l74 -107 -98 -50 c-54 -27 -115 -61 -136 -75 -21 -14 -40
-26 -43 -26 -19 0 -123 -95 -124 -113 0 -16 64 -66 131 -101 38 -20 69 -33 69
-30 0 4 7 1 15 -6 8 -6 20 -8 26 -4 7 4 9 3 6 -3 -7 -12 -8 -11 103 -53 154
-57 153 -56 136 -82 -25 -39 -116 -270 -110 -279 3 -5 1 -9 -4 -9 -10 0 -42
-104 -42 -139 l0 -22 207 1 207 2 18 -39 c10 -21 35 -80 56 -131 21 -51 42
-89 47 -85 4 5 5 3 2 -4 -9 -15 2 -45 14 -37 5 3 6 -1 3 -9 -3 -8 2 -22 11
-31 9 -9 14 -16 10 -16 -3 0 1 -13 10 -30 9 -16 19 -30 24 -30 20 0 125 85
315 258 44 39 84 72 89 72 5 0 29 -14 54 -32 26 -17 52 -31 59 -31 7 0 11 -3
9 -7 -5 -7 126 -86 138 -82 4 1 7 -2 7 -8 0 -5 13 -16 29 -24 22 -12 31 -12
40 -3 10 9 11 8 6 -5 -6 -14 15 -36 35 -36 3 0 17 -6 33 -13 38 -17 51 -2 53
62 1 28 5 53 8 56 3 4 6 75 6 159 l0 154 25 -10 c37 -14 277 -34 318 -26 60
11 60 57 1 228 -19 53 -34 99 -34 101 0 2 25 12 55 22 30 9 55 21 55 27 0 5 4
7 9 4 5 -4 31 4 58 16 51 23 57 25 74 27 5 0 7 6 3 13 -4 7 -3 8 4 4 13 -8 81
24 130 61 40 30 41 58 3 109 -46 63 -169 176 -182 168 -7 -4 -9 -3 -6 3 4 6
-18 30 -48 53 -30 23 -55 45 -55 49 0 4 18 25 40 46 22 21 40 44 40 50 0 5 9
16 20 23 12 7 18 18 14 24 -5 7 -3 8 5 4 8 -5 14 0 18 13 3 12 9 21 14 21 14
0 81 109 74 120 -3 6 -1 10 4 10 15 0 14 45 -1 58 -38 30 -119 44 -283 51
-144 5 -169 8 -166 21 6 26 33 511 28 516 -16 17 -336 -123 -320 -141 4 -4 2
-5 -5 -1 -7 4 -25 0 -40 -10 -15 -10 -34 -19 -42 -21 -8 -1 -20 -10 -27 -19
-7 -10 -13 -15 -13 -11 0 4 -13 1 -29 -7 l-29 -15 -27 64 c-16 36 -32 62 -38
58 -6 -4 -7 -1 -3 6 10 15 -13 73 -25 65 -5 -3 -6 1 -3 9 3 8 -2 22 -11 31 -9
9 -14 16 -10 16 3 0 -10 32 -31 70 -23 45 -43 70 -54 70 -9 0 -44 -28 -76 -62z
m357 -625 c2 1 3 0 2 -2 -2 -4 -8 3 129 -159 62 -74 115 -138 116 -143 2 -5
-10 -26 -27 -48 -17 -21 -27 -42 -23 -46 4 -5 2 -5 -5 -2 -15 9 -45 -21 -36
-36 3 -7 2 -9 -2 -4 -11 10 -46 -23 -38 -36 3 -5 1 -7 -5 -3 -14 8 -44 -22
-35 -37 3 -7 2 -9 -2 -4 -11 10 -46 -23 -38 -36 3 -5 2 -7 -3 -4 -5 3 -21 -3
-34 -13 l-24 -18 50 -54 c28 -29 76 -80 107 -113 69 -73 76 -89 48 -119 -12
-12 -18 -26 -14 -31 5 -4 3 -5 -3 -2 -10 6 -184 -166 -184 -181 0 -4 -9 -13
-21 -20 -15 -10 -24 -10 -34 -2 -8 7 -20 8 -27 4 -9 -6 -9 -3 1 10 8 9 10 16
5 14 -5 -2 -27 16 -48 39 -21 24 -43 40 -50 36 -6 -3 -7 -2 -3 2 4 5 -20 37
-54 71 l-62 62 -96 -93 c-53 -51 -113 -107 -133 -125 -44 -37 -34 -42 -157 75
-41 39 -80 69 -87 69 -8 -1 -11 2 -8 8 3 5 -11 25 -32 44 l-37 35 61 62 c34
34 92 96 131 137 65 70 69 76 53 93 -8 10 -22 15 -29 13 -7 -3 -12 -1 -10 4 1
5 -59 70 -133 145 -105 105 -132 137 -122 147 15 15 16 31 0 22 -7 -4 -8 -3
-4 4 4 6 13 9 22 5 17 -6 66 35 58 48 -3 5 1 7 8 4 7 -3 37 17 67 45 30 27 57
50 59 50 3 0 24 18 48 40 24 22 49 40 55 40 6 0 74 -64 150 -142 l138 -143 30
29 c17 16 28 34 24 39 -3 6 -1 7 4 4 6 -4 42 28 79 70 38 42 86 92 106 111 21
19 35 39 32 44 -4 6 2 6 13 -1 11 -6 22 -9 24 -8z"/>
<path d="M656 14090 c-94 -30 -138 -158 -82 -241 29 -42 79 -69 128 -69 33 0
36 -4 130 -159 l96 -159 -29 -28 c-38 -36 -55 -96 -40 -144 13 -43 17 -39
-136 -121 l-113 -60 -38 30 c-105 85 -256 15 -256 -118 1 -95 61 -156 156
-156 43 0 64 5 87 23 l32 23 27 -20 c15 -11 64 -57 110 -103 l83 -84 -17 -39
c-42 -102 35 -215 148 -215 60 0 108 28 135 80 60 113 -10 230 -137 230 -32 0
-64 -6 -76 -14 -19 -14 -27 -8 -130 95 l-109 109 0 59 0 60 133 72 134 72 38
-22 c77 -43 175 -18 217 55 62 107 -10 234 -132 234 l-50 0 -93 155 -93 156
30 28 c76 71 67 190 -19 252 -30 22 -95 31 -134 19z m88 -44 c92 -39 102 -166
16 -211 -81 -42 -170 14 -170 108 0 41 31 84 74 103 39 17 40 17 80 0z m326
-621 c107 -55 60 -215 -64 -215 -73 0 -131 86 -103 152 29 70 101 97 167 63z
m-555 -299 c76 -32 96 -128 39 -187 -72 -76 -197 -25 -197 80 0 46 27 89 68
107 39 17 48 17 90 0z m495 -426 c62 -44 64 -127 4 -179 -64 -57 -156 -30
-184 53 -32 98 94 187 180 126z"/>
<path d="M12835 14053 c-120 -16 -546 -113 -718 -164 -50 -15 -66 -24 -59 -32
5 -7 12 -30 16 -52 4 -22 34 -179 67 -349 33 -169 57 -316 54 -324 -3 -9 -3
-13 2 -9 4 4 46 -192 93 -435 67 -342 89 -442 100 -440 8 2 80 17 160 33 535
108 721 147 727 153 3 3 -6 61 -21 128 -126 571 -251 1217 -267 1378 -6 58
-16 108 -22 112 -12 8 -78 8 -132 1z m-142 -234 c87 -596 193 -970 318 -1129
37 -47 45 -80 20 -80 -18 0 -89 90 -124 158 -91 174 -183 529 -241 931 -16
107 -20 160 -13 169 18 23 32 6 40 -49z"/>
<path d="M18430 14058 c-3 -3 -167 -8 -365 -12 -466 -8 -811 -25 -1195 -62
-91 -8 -172 -17 -180 -20 -8 -3 -43 -7 -78 -9 -34 -2 -67 -7 -73 -10 -6 -4
-34 -9 -62 -11 -79 -5 -290 -50 -402 -85 -117 -37 -196 -75 -245 -119 -19 -17
-28 -28 -20 -24 8 4 2 -5 -13 -21 -15 -16 -25 -35 -23 -42 3 -8 2 -12 -2 -9
-17 10 -47 -75 -78 -224 -3 -14 -5 -95 -5 -180 0 -169 22 -363 72 -650 36
-203 49 -428 27 -470 -16 -32 -89 -68 -250 -124 -160 -56 -191 -71 -234 -112
-38 -38 -43 -70 -18 -113 20 -34 51 -46 169 -65 264 -45 668 -60 1420 -53 341
3 663 9 715 12 52 3 183 10 290 15 278 15 634 42 640 49 3 3 41 7 85 9 145 4
598 69 589 83 -3 5 2 6 10 3 18 -7 133 18 226 48 175 56 230 115 284 300 41
143 51 245 51 506 -1 142 -5 246 -10 250 -6 4 -11 36 -13 72 -7 197 -140 686
-195 722 -6 3 -11 15 -12 26 -5 70 -161 248 -252 288 -54 24 -60 25 -451 31
-219 3 -399 3 -402 1z m318 -92 c3 -3 14 -6 25 -6 35 0 97 -23 97 -36 0 -23
-16 -24 -91 -8 -48 10 -109 15 -174 12 -88 -3 -100 -1 -103 15 -3 13 3 17 22
17 14 0 26 3 26 8 0 8 189 7 198 -2z m-408 -16 c0 -18 -7 -20 -77 -20 -43 0
-121 -5 -173 -10 -52 -5 -122 -12 -155 -15 -78 -7 -546 -72 -654 -91 -116 -20
-153 -19 -149 4 3 14 27 21 130 37 69 11 129 23 133 27 4 4 12 5 19 2 7 -3 57
2 112 11 54 9 119 18 144 20 25 3 77 9 115 15 39 5 120 14 180 20 61 5 124 12
140 14 17 1 76 4 133 5 96 1 102 0 102 -19z m636 -529 c-3 -5 48 -164 113
-352 65 -189 129 -373 141 -409 13 -36 26 -67 29 -70 3 -3 7 -14 8 -26 1 -11
8 -34 14 -50 7 -16 13 -31 14 -34 0 -3 16 -49 34 -102 33 -100 34 -118 2 -118
-15 0 -31 37 -84 188 -36 103 -69 199 -72 214 -4 15 -12 31 -18 36 -7 5 -108
7 -225 4 l-212 -4 -31 -100 c-17 -55 -32 -105 -33 -111 -2 -7 -6 -19 -9 -27
-3 -8 -29 -88 -57 -177 -28 -89 -56 -166 -62 -169 -6 -4 -8 -3 -5 3 4 6 -2 13
-13 16 -18 4 -19 9 -10 32 6 15 8 30 5 33 -2 3 -1 10 4 16 5 6 21 52 36 101
15 50 33 109 41 133 8 24 12 48 9 53 -4 5 -2 9 4 9 5 0 12 14 16 31 14 62 217
666 253 749 45 108 58 128 85 133 12 2 23 5 25 6 2 0 1 -3 -2 -8z m-614 -11
c2 -5 0 -94 -4 -197 -19 -534 -58 -941 -97 -1001 -8 -13 -62 -25 -58 -13 4 12
-47 70 -56 64 -6 -3 -7 -1 -3 5 8 14 -28 74 -39 64 -5 -4 -5 -2 -2 4 8 14 -77
166 -88 156 -5 -4 -5 -1 -1 5 4 7 -13 52 -37 100 -25 49 -68 140 -97 203 -28
63 -55 117 -58 120 -4 3 -8 13 -10 22 -5 34 -69 158 -77 151 -4 -5 -5 -3 -1 4
4 7 -2 34 -13 60 -30 71 -30 87 -3 91 14 2 20 8 16 15 -4 7 -3 8 2 4 5 -5 9
-14 9 -20 0 -27 38 -106 48 -100 5 3 7 1 3 -5 -14 -23 316 -718 336 -706 7 4
8 3 4 -5 -8 -12 53 -130 79 -151 12 -10 16 -10 19 1 10 28 27 166 31 249 2 47
6 92 9 100 6 20 25 347 32 565 3 99 7 190 10 203 4 22 39 32 46 12z m-1148
-71 c-2 -4 25 -67 60 -140 34 -74 78 -170 97 -214 19 -44 36 -82 39 -85 3 -3
6 -12 8 -20 2 -8 8 -17 13 -18 5 -2 7 -7 4 -12 -3 -4 15 -52 39 -107 24 -54
92 -217 151 -363 60 -146 114 -271 120 -278 20 -22 6 -62 -21 -62 -13 0 -24 5
-24 10 0 17 -213 525 -222 531 -6 3 -9 9 -9 13 1 3 1 11 1 16 0 6 -75 10 -205
10 -113 0 -205 -2 -205 -5 0 -3 -18 -114 -40 -246 -45 -273 -44 -263 -27 -253
6 4 10 5 7 1 -3 -3 -9 -6 -15 -7 -5 -1 -19 -6 -30 -10 -18 -7 -21 -4 -23 22
-1 16 -3 32 -4 36 -1 4 1 14 5 22 3 8 20 101 37 205 45 279 87 510 122 680 18
83 32 162 32 177 1 14 4 24 9 21 4 -2 7 3 7 12 0 9 7 29 15 45 11 22 22 29 39
28 14 -1 23 -5 20 -9z m-479 -64 c2 -33 9 -127 14 -210 21 -303 10 -595 -29
-762 -34 -144 -89 -224 -164 -238 -66 -13 -188 36 -245 98 -21 23 -40 36 -49
32 -11 -4 -12 -2 -5 7 12 15 -39 102 -52 90 -5 -4 -5 -2 -2 4 4 7 -4 41 -17
77 -31 80 -58 214 -54 259 2 25 8 33 23 33 17 0 21 -9 27 -59 11 -87 44 -197
81 -274 36 -74 122 -172 155 -175 11 0 19 -4 16 -8 -6 -11 51 -31 92 -32 32
-1 43 5 74 41 63 71 97 225 107 492 5 158 -12 574 -25 595 -4 6 -5 18 -4 28 4
20 -21 21 -223 8 -133 -9 -145 -7 -145 19 0 14 10 20 43 24 60 9 156 13 275
12 l103 -1 4 -60z m-30 -1134 c-9 -8 -36 -10 -30 -2 2 4 11 8 20 8 8 0 13 -3
10 -6z"/>
<path d="M18902 13234 c-18 -47 -30 -90 -27 -95 4 -5 1 -9 -6 -9 -7 0 -9 -3
-6 -7 4 -3 2 -12 -3 -18 -8 -9 -120 -339 -120 -352 0 -6 298 -1 346 5 l52 7
-96 278 c-52 152 -98 277 -101 277 -3 0 -21 -39 -39 -86z"/>
<path d="M17180 13245 c0 -3 -18 -96 -40 -207 -55 -285 -68 -357 -62 -363 10
-10 362 -5 362 5 0 5 -11 33 -24 62 -13 29 -58 134 -101 233 -43 99 -87 201
-98 228 -12 26 -25 47 -29 47 -4 0 -8 -2 -8 -5z"/>
<path d="M13957 13770 c-52 -13 -77 -28 -77 -45 0 -19 22 -19 84 0 56 17 155
20 205 5 44 -12 71 4 47 28 -18 18 -200 26 -259 12z"/>
<path d="M14248 13294 c-4 -3 -53 -10 -110 -14 -160 -14 -178 -18 -178 -42 0
-19 4 -20 43 -14 107 16 248 19 273 6 19 -11 27 -11 36 -2 16 16 -1 45 -28 51
-10 2 -22 7 -25 12 -3 5 -8 7 -11 3z"/>
<path d="M14363 12865 c0 -8 4 -12 9 -9 5 3 6 10 3 15 -9 13 -12 11 -12 -6z"/>
<path d="M11736 12168 c3 -5 10 -6 15 -3 13 9 11 12 -6 12 -8 0 -12 -4 -9 -9z"/>
<path d="M11316 12017 c-48 -27 -76 -77 -76 -135 0 -107 96 -180 200 -152 l41
11 139 -111 c77 -62 140 -116 140 -122 0 -5 -5 -19 -11 -30 -19 -36 -14 -113
11 -153 l22 -36 -45 -52 c-25 -28 -69 -78 -98 -110 l-54 -57 -46 17 c-40 15
-52 15 -90 4 -83 -25 -132 -108 -114 -192 10 -43 75 -106 119 -115 63 -11 107
4 152 52 l42 44 134 -60 134 -61 0 -48 c0 -65 28 -110 87 -140 155 -77 300
113 186 244 -58 65 -150 72 -221 15 l-39 -32 -140 63 c-102 47 -139 68 -139
81 0 10 -7 35 -16 57 l-16 40 103 115 c96 108 103 114 128 104 38 -14 107 0
141 29 41 34 60 73 60 124 0 113 -124 194 -221 144 l-29 -16 -145 117 c-139
113 -144 118 -128 136 10 12 18 41 21 79 4 51 1 65 -21 98 -46 70 -137 91
-211 48z m134 -32 c59 -30 79 -119 38 -170 -50 -64 -131 -65 -183 -4 -80 95
34 231 145 174z m527 -499 c26 -28 33 -45 33 -75 0 -70 -78 -132 -144 -115
-43 10 -86 68 -86 115 0 110 122 157 197 75z m-419 -452 c13 -9 31 -32 39 -52
13 -32 14 -42 2 -77 -16 -45 -67 -85 -109 -85 -42 0 -93 40 -109 86 -13 37
-12 44 5 80 33 69 108 90 172 48z m573 -227 c44 -30 61 -63 55 -110 -5 -48
-38 -84 -87 -98 -52 -16 -107 11 -133 65 -17 36 -18 43 -5 80 16 46 67 86 109
86 15 0 42 -10 61 -23z"/>
<path d="M2473 11674 c-3 -8 0 -63 6 -122 28 -263 63 -534 74 -579 12 -47 13
-48 52 -51 58 -4 365 34 377 46 8 8 8 15 0 24 -9 12 -42 10 -191 -6 -99 -11
-183 -17 -187 -13 -9 9 -25 129 -60 442 -15 138 -32 256 -37 263 -13 16 -26
15 -34 -4z"/>
<path d="M1580 11660 c-113 -10 -209 -19 -213 -19 -5 -1 -7 -11 -5 -23 3 -22
6 -23 78 -19 41 3 91 5 110 5 l35 1 11 -300 c7 -165 12 -328 13 -363 1 -47 5
-64 17 -69 34 -13 36 9 25 288 -6 151 -11 315 -12 364 l-2 90 93 7 c94 6 120
19 98 45 -6 7 -18 12 -27 12 -9 -1 -108 -10 -221 -19z"/>
<path d="M1916 11654 c-16 -43 17 -679 38 -712 10 -16 33 -15 38 1 4 11 1 67
-16 252 -3 33 -9 134 -12 225 l-6 165 81 -115 c117 -165 116 -164 128 -157 7
4 21 33 33 65 59 160 73 193 80 185 7 -8 22 -224 36 -521 5 -111 10 -145 21
-149 33 -13 36 12 24 249 -21 416 -35 518 -72 518 -25 0 -51 -43 -97 -162 -20
-54 -39 -98 -42 -98 -3 0 -25 31 -50 68 -125 185 -168 229 -184 186z"/>
<path d="M1215 11639 c-7 -10 -1 -165 11 -315 l6 -71 -163 -6 c-89 -4 -165 -4
-168 -2 -3 3 -7 90 -10 193 -6 184 -6 187 -28 190 -23 3 -23 2 -23 -105 0
-161 18 -608 26 -638 4 -16 13 -25 26 -25 19 0 20 5 13 164 l-8 163 89 7 c49
3 123 7 164 8 86 2 87 0 89 -103 3 -173 20 -244 52 -212 8 8 -25 687 -36 741
-6 23 -29 30 -40 11z"/>
<path d="M19062 11545 c-88 -19 -180 -72 -217 -124 -27 -39 -30 -50 -31 -129
l-1 -86 -44 -28 c-24 -15 -86 -53 -137 -84 l-92 -57 -47 47 c-61 62 -109 86
-174 86 -67 0 -109 -21 -168 -85 -97 -107 -231 -426 -178 -425 6 0 68 25 137
55 69 30 130 55 136 55 11 0 154 -179 154 -192 0 -4 -52 -43 -116 -88 -78 -56
-114 -88 -112 -99 8 -39 270 -35 383 6 65 24 140 95 154 148 13 47 14 97 2
146 l-8 35 150 85 150 85 42 -41 c123 -123 239 -134 339 -31 74 76 160 267
182 406 13 78 7 78 -142 -1 l-137 -72 -73 79 c-41 43 -78 86 -83 94 -8 13 14
35 100 108 60 51 109 99 109 107 0 12 -19 15 -107 14 -60 0 -136 -7 -171 -14z
m158 -58 c-20 -17 -62 -55 -95 -83 -72 -63 -74 -56 60 -199 l94 -100 120 63
c85 45 121 59 121 49 0 -9 -14 -57 -30 -107 -59 -181 -132 -285 -218 -311 -36
-10 -45 -9 -94 13 -30 14 -77 48 -105 77 -28 28 -56 51 -64 51 -21 0 -349
-190 -349 -203 0 -6 5 -37 12 -68 21 -102 -24 -186 -121 -228 -58 -25 -223
-46 -268 -34 l-32 8 99 70 c55 39 101 75 104 81 6 15 -176 253 -194 254 -9 0
-67 -23 -129 -50 -63 -28 -115 -49 -117 -47 -6 6 56 159 89 220 36 69 107 151
148 172 33 18 101 19 132 4 12 -6 50 -38 84 -72 44 -43 66 -58 79 -53 9 4 86
50 171 103 119 74 153 100 148 112 -4 9 -9 41 -12 71 -6 72 25 133 88 172 56
35 177 67 254 67 l60 0 -35 -32z"/>
<path d="M19319 10979 c-49 -53 -59 -59 -95 -59 -41 0 -101 30 -110 55 -7 18
-44 20 -44 2 0 -21 28 -54 64 -76 40 -25 114 -28 155 -6 35 18 123 114 118
129 -8 25 -35 11 -88 -45z"/>
<path d="M18270 11019 c-90 -37 -208 -179 -149 -179 5 0 37 29 70 65 88 94
149 107 218 49 18 -15 38 -24 47 -20 22 8 14 25 -29 59 -40 33 -112 45 -157
26z"/>
<path d="M13182 11331 c-18 -5 -50 -20 -71 -34 l-39 -26 -63 27 c-85 35 -171
37 -215 5 -35 -25 -64 -86 -64 -133 0 -28 -3 -30 -36 -30 -107 0 -207 -120
-208 -251 -1 -56 3 -72 27 -108 30 -46 100 -95 160 -113 28 -8 43 -22 60 -51
12 -21 40 -50 63 -63 71 -42 258 -31 366 21 37 18 38 18 62 -4 58 -54 162 -47
263 18 156 101 226 266 163 379 -25 45 -83 89 -129 98 -25 5 -30 14 -44 63
-12 42 -30 73 -63 110 -71 79 -152 111 -232 92z m92 -42 c69 -19 150 -111 170
-191 5 -23 2 -28 -28 -38 -100 -33 -174 -164 -104 -186 60 -19 151 43 164 112
3 19 12 38 19 41 33 12 121 -64 135 -118 44 -164 -249 -406 -373 -309 l-26 21
21 40 c27 53 22 140 -11 172 -20 20 -23 21 -48 7 -40 -22 -59 -80 -46 -139 5
-25 13 -53 17 -62 14 -31 -110 -69 -227 -69 -89 0 -135 16 -160 54 -17 25 -17
27 0 32 85 28 113 58 113 124 0 80 -59 138 -114 112 -31 -14 -59 -75 -64 -140
-5 -60 -11 -61 -89 -16 -109 63 -130 176 -52 284 43 60 84 81 144 78 l50 -3 6
60 c3 33 11 70 18 82 18 35 67 56 114 49 35 -6 137 -44 137 -51 0 -2 -9 -22
-20 -46 -34 -76 -22 -147 31 -175 39 -20 56 -18 84 11 36 35 35 111 -2 174
l-26 45 23 15 c24 16 77 39 95 40 6 1 27 -4 49 -10z m-171 -118 c34 -57 15
-141 -27 -125 -36 14 -45 63 -22 119 18 43 27 44 49 6z m337 -163 c0 -45 -86
-116 -111 -91 -12 12 23 59 65 84 36 22 46 24 46 7z m-606 -173 c35 -53 11
-117 -51 -134 l-33 -10 0 42 c0 50 33 127 53 127 8 0 22 -11 31 -25z m390 -51
c10 -26 6 -78 -8 -103 l-13 -24 -12 33 c-14 40 -14 51 -1 84 11 29 25 34 34
10z"/>
<path d="M7177 11263 c-18 -17 -3 -78 37 -158 l44 -88 -69 -105 c-112 -172
-113 -202 -7 -202 54 0 59 -2 52 -17 -25 -58 -55 -158 -52 -176 2 -15 11 -23
28 -25 56 -7 448 149 725 288 177 89 184 98 103 147 -135 82 -542 259 -726
317 -83 26 -123 32 -135 19z m125 -59 c46 -15 128 -44 182 -66 130 -51 438
-190 433 -195 -3 -2 -286 41 -593 92 -27 5 -37 16 -73 86 -37 72 -49 109 -37
109 3 0 42 -12 88 -26z m368 -265 c135 -22 254 -43 265 -48 23 -9 -217 -21
-434 -21 -80 0 -156 -3 -167 -6 -13 -3 -30 -25 -45 -55 -25 -54 -40 -62 -107
-57 l-41 3 54 87 c29 48 65 102 79 121 l26 34 62 -9 c35 -5 173 -27 308 -49z
m245 -126 c-141 -74 -680 -292 -692 -280 -6 6 50 147 90 227 l32 65 215 5
c118 3 258 6 310 7 l95 2 -50 -26z"/>
<path d="M14005 11159 c-26 -31 -30 -64 -8 -64 15 0 74 75 67 86 -10 17 -32 9
-59 -22z"/>
<path d="M14770 11115 c0 -9 10 -19 23 -24 13 -5 29 -16 36 -25 7 -9 20 -16
27 -16 22 0 16 29 -11 55 -27 28 -75 34 -75 10z"/>
<path d="M14688 11093 c-36 -41 -47 -93 -20 -93 11 0 62 78 62 96 0 19 -24 18
-42 -3z"/>
<path d="M16995 11103 c-85 -12 -235 -67 -235 -86 0 -6 16 -28 37 -49 l36 -37
-29 -11 c-57 -20 -77 -35 -92 -67 -21 -44 -4 -101 44 -143 20 -17 35 -33 33
-34 -2 -2 -30 -14 -63 -27 l-58 -24 79 -76 c101 -97 188 -142 284 -147 56 -4
74 0 107 18 56 32 84 86 90 176 4 59 8 75 22 79 10 3 30 17 44 30 35 33 34 75
-3 118 -26 29 -29 39 -24 75 12 89 -32 167 -107 190 -44 14 -125 21 -165 15z
m-112 -231 c13 -14 14 -25 6 -62 -6 -25 -9 -57 -7 -72 5 -32 -17 -42 -52 -23
-17 9 -19 13 -7 18 16 6 43 129 32 146 -10 18 11 12 28 -7z m-67 -24 c-4 -18
-9 -52 -13 -76 -5 -35 -8 -40 -20 -30 -24 19 -44 68 -38 89 6 17 48 48 69 49
5 0 6 -15 2 -32z m164 -88 c0 -9 -51 -32 -57 -26 -3 3 -2 22 1 42 l7 36 25
-23 c13 -12 24 -25 24 -29z m300 -1 c0 -16 -26 -39 -44 -39 -9 0 -7 26 4 55 9
23 13 25 25 15 8 -7 15 -21 15 -31z"/>
<path d="M13950 11041 c-5 -11 -10 -38 -10 -61 0 -34 3 -41 17 -38 13 2 20 17
25 52 4 28 5 53 2 58 -9 14 -23 9 -34 -11z"/>
<path d="M4897 11023 c-13 -13 -6 -22 39 -53 30 -20 50 -28 56 -22 16 16 -10
52 -47 68 -40 16 -40 16 -48 7z"/>
<path d="M4799 10989 c-30 -32 -37 -74 -12 -74 12 0 63 69 63 85 0 23 -23 18
-51 -11z"/>
<path d="M5612 11003 c2 -13 17 -20 53 -25 55 -8 76 2 55 27 -8 10 -30 15 -62
15 -42 0 -49 -3 -46 -17z"/>
<path d="M14862 10953 c2 -44 7 -58 18 -58 12 0 15 13 15 55 0 45 -3 55 -18
58 -16 3 -18 -3 -15 -55z"/>
<path d="M4140 10975 c-6 -14 -14 -36 -19 -48 -12 -31 2 -55 22 -39 18 15 41
87 33 101 -12 18 -26 13 -36 -14z"/>
<path d="M5550 10938 c0 -54 10 -78 32 -78 18 0 20 5 14 31 -3 17 -6 42 -6 55
0 17 -6 24 -20 24 -16 0 -20 -7 -20 -32z"/>
<path d="M5754 10946 c-8 -21 22 -101 37 -101 20 0 22 38 5 79 -16 37 -33 46
-42 22z"/>
<path d="M6620 10909 c-12 -50 -4 -79 18 -65 13 7 34 94 27 107 -15 23 -34 6
-45 -42z"/>
<path d="M14650 10918 c0 -50 22 -90 40 -72 17 17 -1 108 -23 112 -14 3 -17
-4 -17 -40z"/>
<path d="M15537 10930 c-26 -21 -37 -60 -17 -60 16 0 85 51 85 63 0 21 -40 19
-68 -3z"/>
<path d="M15646 10921 c-3 -5 2 -19 12 -32 10 -13 21 -32 25 -41 10 -27 37
-22 37 6 0 43 -57 95 -74 67z"/>
<path d="M17525 10920 c-3 -5 -1 -20 6 -32 20 -37 -30 -69 -144 -93 -20 -4
-27 -11 -25 -23 7 -36 152 1 193 49 28 34 30 45 15 83 -10 26 -34 35 -45 16z"/>
<path d="M4988 10903 c-2 -5 -4 -30 -4 -58 1 -37 5 -50 17 -53 19 -3 33 57 23
96 -6 21 -29 30 -36 15z"/>
<path d="M13945 10888 c-10 -24 20 -103 39 -106 17 -4 18 1 12 38 -11 67 -38
103 -51 68z"/>
<path d="M16325 10829 c-4 -28 -3 -55 2 -60 16 -16 32 7 39 59 6 48 5 52 -14
52 -17 0 -21 -9 -27 -51z"/>
<path d="M4750 10821 c0 -28 6 -53 13 -60 22 -17 32 4 29 58 -3 42 -7 51 -23
51 -16 0 -19 -7 -19 -49z"/>
<path d="M4095 10840 c-3 -5 -9 -33 -12 -61 -5 -46 -4 -51 13 -47 31 6 45 118
15 118 -5 0 -13 -4 -16 -10z"/>
<path d="M14847 10821 c-3 -16 -9 -40 -13 -55 -5 -22 -3 -26 14 -26 16 0 24
10 31 38 16 54 14 72 -8 72 -12 0 -20 -9 -24 -29z"/>
<path d="M5607 10823 c-4 -3 -7 -12 -7 -19 0 -16 58 -84 71 -84 24 0 18 33
-13 69 -34 42 -40 46 -51 34z"/>
<path d="M15492 10773 c2 -46 7 -58 21 -61 16 -3 18 3 15 55 -2 46 -7 58 -21
61 -16 3 -18 -3 -15 -55z"/>
<path d="M6570 10763 c-22 -49 -20 -76 3 -67 19 7 51 79 44 98 -11 27 -25 18
-47 -31z"/>
<path d="M14690 10788 c0 -31 36 -88 55 -88 21 0 19 23 -5 70 -22 44 -50 53
-50 18z"/>
<path d="M5777 10793 c-3 -5 -8 -26 -11 -49 -7 -37 -10 -41 -32 -36 -28 5 -32
-13 -8 -39 14 -16 13 -21 -10 -58 -14 -22 -26 -48 -26 -57 0 -29 34 -10 58 34
14 25 31 42 41 42 27 0 33 11 16 30 -11 13 -13 24 -5 51 15 50 13 89 -4 89 -8
0 -17 -3 -19 -7z"/>
<path d="M8716 10784 c-3 -9 -6 -36 -6 -60 0 -24 -3 -44 -7 -44 -5 0 -19 16
-33 35 -25 35 -60 47 -60 21 0 -7 14 -30 30 -51 17 -21 30 -39 30 -41 0 -1
-31 0 -70 3 -67 6 -70 5 -70 -16 0 -18 6 -21 48 -21 70 0 78 -12 27 -39 -29
-15 -45 -31 -45 -42 0 -26 17 -24 75 11 28 16 52 30 55 30 3 0 3 -32 2 -71 -3
-64 -2 -70 15 -67 14 3 19 14 21 61 2 31 7 57 12 57 5 0 21 -16 36 -35 25 -33
64 -48 64 -24 0 7 -16 32 -36 55 l-35 44 61 0 c53 0 61 2 58 18 -2 12 -15 18
-48 20 l-44 3 47 30 c26 16 47 34 47 39 0 23 -30 19 -79 -9 -29 -17 -54 -31
-56 -31 -3 0 -5 32 -5 70 0 53 -3 70 -14 70 -8 0 -17 -7 -20 -16z"/>
<path d="M15691 10767 c-18 -47 -17 -91 1 -95 19 -4 29 22 31 79 2 39 -19 50
-32 16z"/>
<path d="M4946 10707 c-20 -53 -20 -67 -1 -67 15 0 55 68 55 95 0 8 -8 15 -19
15 -12 0 -23 -14 -35 -43z"/>
<path d="M13994 10735 c-8 -19 41 -95 61 -95 22 0 18 25 -10 70 -27 42 -42 50
-51 25z"/>
<path d="M16280 10684 c-20 -47 -21 -74 -1 -74 17 0 43 47 45 81 2 49 -20 45
-44 -7z"/>
<path d="M4775 10710 c-8 -14 36 -106 50 -103 17 3 17 30 -2 69 -19 40 -37 52
-48 34z"/>
<path d="M14804 10685 c-4 -8 -12 -15 -20 -15 -8 0 -15 -11 -15 -25 -1 -14 -2
-31 -3 -37 -1 -7 9 -13 20 -13 12 -1 29 -7 37 -14 18 -14 37 -7 37 13 0 8 -7
19 -15 26 -11 9 -14 22 -9 46 5 27 3 34 -10 34 -9 0 -19 -7 -22 -15z"/>
<path d="M17322 10683 c2 -12 16 -20 42 -24 65 -10 73 -33 54 -154 -2 -12 4
-21 14 -23 24 -5 38 35 38 101 -1 77 -40 117 -115 117 -29 0 -36 -3 -33 -17z"/>
<path d="M4087 10683 c-21 -20 3 -113 29 -113 13 0 15 8 9 53 -9 66 -18 81
-38 60z"/>
<path d="M6482 10637 c-34 -35 -39 -51 -21 -63 14 -8 79 55 79 78 0 27 -23 22
-58 -15z"/>
<path d="M15515 10660 c-7 -11 29 -85 46 -95 26 -16 29 13 8 59 -22 44 -41 57
-54 36z"/>
<path d="M15654 10632 c-24 -16 -54 -72 -54 -100 0 -22 10 -38 35 -61 38 -33
50 -37 61 -20 3 6 -10 27 -29 47 l-35 37 24 35 c13 19 24 40 24 47 0 16 -13
23 -26 15z"/>
<path d="M5851 10616 c-14 -16 -1 -29 54 -51 27 -12 41 -13 48 -6 15 15 -6 35
-55 55 -30 13 -38 13 -47 2z"/>
<path d="M4861 10573 c-34 -42 -35 -56 -3 -61 11 -2 26 -10 32 -18 14 -16 50
-19 50 -3 0 6 -9 22 -20 37 -14 17 -17 29 -10 36 15 15 12 46 -4 46 -8 0 -28
-17 -45 -37z"/>
<path d="M14080 10597 c0 -16 61 -77 77 -77 27 0 23 24 -8 56 -33 34 -69 45
-69 21z"/>
<path d="M16196 10544 c-26 -32 -30 -64 -7 -64 14 0 71 69 71 85 0 26 -34 15
-64 -21z"/>
<path d="M6003 10563 c-7 -3 -13 -11 -13 -18 0 -15 96 -49 111 -39 22 13 6 34
-33 45 -24 6 -45 12 -48 14 -3 1 -11 0 -17 -2z"/>
<path d="M6353 10552 c-29 -11 -43 -22 -43 -34 0 -22 18 -23 70 -2 27 11 40
22 38 32 -4 21 -16 22 -65 4z"/>
<path d="M14692 10537 c-36 -37 -41 -57 -14 -57 23 0 72 50 72 73 0 26 -23 20
-58 -16z"/>
<path d="M14887 10553 c-15 -14 -5 -31 31 -57 21 -14 43 -26 50 -26 26 0 10
36 -27 63 -43 29 -45 30 -54 20z"/>
<path d="M4137 10533 c-13 -13 -7 -31 22 -62 30 -32 61 -41 61 -17 0 13 -61
86 -72 86 -2 0 -8 -3 -11 -7z"/>
<path d="M6157 10524 c-4 -4 -7 -14 -7 -21 0 -11 14 -13 58 -11 43 2 57 7 57
18 0 11 -14 16 -50 18 -28 2 -54 0 -58 -4z"/>
<path d="M5606 10486 c-36 -31 -42 -56 -14 -56 21 0 78 51 78 71 0 27 -19 23
-64 -15z"/>
<path d="M14207 10503 c-14 -14 -6 -24 37 -45 42 -20 84 -19 71 2 -7 11 -79
50 -93 50 -5 0 -12 -3 -15 -7z"/>
<path d="M15517 10483 c-65 -46 -36 -76 30 -30 32 22 45 57 20 57 -7 0 -29
-12 -50 -27z"/>
<path d="M4748 10472 c-38 -27 -47 -46 -27 -57 16 -10 91 43 87 62 -5 25 -20
24 -60 -5z"/>
<path d="M14557 10461 c-34 -10 -47 -19 -44 -30 5 -28 104 -6 114 25 6 19 -20
21 -70 5z"/>
<path d="M4970 10450 c0 -26 84 -70 101 -53 15 15 6 27 -41 52 -50 26 -60 26
-60 1z"/>
<path d="M15017 10463 c-15 -14 -5 -24 40 -44 76 -33 106 -3 31 31 -46 21 -61
24 -71 13z"/>
<path d="M16078 10449 c-47 -24 -52 -54 -8 -46 39 8 80 35 80 53 0 19 -28 17
-72 -7z"/>
<path d="M14355 10440 c-11 -18 5 -27 58 -34 38 -4 49 -2 54 10 8 21 3 24 -54
31 -34 4 -53 2 -58 -7z"/>
<path d="M4257 10433 c-23 -22 32 -63 84 -63 36 0 19 31 -27 50 -52 23 -49 22
-57 13z"/>
<path d="M15730 10426 c0 -18 55 -46 90 -46 30 0 25 29 -7 41 -56 21 -83 23
-83 5z"/>
<path d="M5468 10413 c-36 -15 -49 -35 -29 -47 5 -3 29 1 55 10 33 11 46 21
46 35 0 23 -20 23 -72 2z"/>
<path d="M15370 10423 c-54 -10 -62 -43 -10 -43 41 0 80 17 80 35 0 15 -18 17
-70 8z"/>
<path d="M4607 10403 c-36 -11 -47 -19 -45 -31 6 -30 113 -4 113 27 0 20 -13
21 -68 4z"/>
<path d="M15170 10401 c0 -14 10 -20 46 -25 50 -6 64 -2 64 18 0 14 -42 26
-86 26 -17 0 -24 -6 -24 -19z"/>
<path d="M15930 10411 c-31 -4 -45 -11 -45 -21 0 -17 81 -26 104 -11 14 9 9
42 -6 39 -4 0 -28 -4 -53 -7z"/>
<path d="M5114 10395 c-4 -10 -1 -20 6 -25 18 -11 89 -22 101 -15 21 14 7 33
-30 39 -22 3 -46 9 -55 12 -10 4 -18 -1 -22 -11z"/>
<path d="M4405 10380 c-11 -18 5 -28 57 -35 39 -6 49 -4 54 9 9 22 7 24 -52
31 -36 5 -54 4 -59 -5z"/>
<path d="M5298 10383 c-27 -4 -38 -26 -18 -38 5 -3 32 -3 60 1 39 5 50 10 48
23 -3 17 -39 22 -90 14z"/>
<path d="M18159 9447 c-58 -20 -140 -63 -193 -102 -19 -14 -14 -35 9 -35 7 0
42 18 78 40 88 53 180 83 236 77 54 -6 89 -31 121 -88 35 -62 34 -183 -1 -287
-24 -68 -25 -73 -8 -88 16 -15 19 -11 44 68 49 155 44 275 -17 359 -56 78
-148 97 -269 56z"/>
<path d="M4510 9370 c0 -19 5 -21 58 -18 43 2 57 7 57 18 0 11 -14 16 -57 18
-53 3 -58 1 -58 -18z"/>
<path d="M4393 9360 c-43 -19 -54 -36 -30 -46 20 -7 109 34 105 49 -7 19 -29
18 -75 -3z"/>
<path d="M2885 9352 c-141 -49 -221 -135 -240 -258 -7 -42 -10 -45 -127 -107
-101 -53 -218 -194 -239 -287 -11 -47 7 -99 48 -142 63 -66 234 -106 404 -94
l86 6 29 -31 c16 -17 52 -43 79 -57 66 -34 182 -36 262 -4 67 27 132 68 140
88 7 20 -23 51 -72 76 -51 26 -50 25 -35 43 9 10 10 31 6 64 l-7 50 46 20 c25
11 45 26 45 34 0 25 -40 168 -67 235 -33 87 -53 105 -107 97 l-41 -6 -18 50
c-16 46 -21 51 -47 51 -36 0 -37 10 -9 85 11 30 19 65 17 77 -3 20 -10 23 -53
25 -28 2 -72 -5 -100 -15z m222 -438 c89 -273 94 -297 62 -317 -56 -37 -243
-79 -406 -93 l-81 -6 -22 73 c-11 41 -42 143 -69 227 l-49 152 57 35 c112 67
354 157 411 152 22 -2 29 -18 97 -223z m78 106 c22 -43 75 -208 75 -234 0 -27
-47 -55 -55 -33 -3 6 -23 66 -44 132 -22 66 -42 128 -46 137 -6 16 -4 17 47
27 4 0 15 -13 23 -29z"/>
<path d="M2786 8978 c-21 -6 -55 -27 -76 -48 -107 -107 -49 -287 101 -315 119
-22 234 94 214 214 -18 109 -129 178 -239 149z m119 -51 c123 -60 97 -246 -39
-271 -98 -18 -191 83 -165 179 25 90 121 133 204 92z"/>
<path d="M2740 8770 c0 -56 43 -94 101 -88 44 4 47 32 4 36 -36 4 -54 18 -66
49 -10 28 -39 31 -39 3z"/>
<path d="M4664 9359 c-3 -6 -2 -14 2 -18 17 -15 95 -41 105 -36 20 13 7 34
-31 49 -47 19 -66 20 -76 5z"/>
<path d="M5554 9359 c-12 -20 12 -30 62 -27 37 2 50 7 52 21 3 14 -5 17 -52
17 -30 0 -58 -5 -62 -11z"/>
<path d="M6694 9355 c-9 -22 -3 -25 60 -32 47 -5 56 -3 56 10 0 20 -5 23 -63
31 -38 6 -48 4 -53 -9z"/>
<path d="M16592 9363 c-15 -3 -22 -10 -20 -21 3 -14 14 -16 58 -14 62 4 65 5
57 27 -6 15 -42 18 -95 8z"/>
<path d="M16733 9353 c-8 -22 15 -33 70 -33 36 0 47 4 47 15 0 18 -9 21 -68
28 -33 4 -45 2 -49 -10z"/>
<path d="M5443 9343 c-30 -10 -43 -20 -43 -34 0 -23 11 -23 65 -5 26 9 40 20
40 32 0 24 -12 25 -62 7z"/>
<path d="M5710 9346 c0 -18 85 -60 101 -50 18 11 8 35 -18 45 -56 21 -83 23
-83 5z"/>
<path d="M6553 9350 c-26 -11 -30 -28 -9 -36 26 -10 101 10 104 29 3 14 -4 17
-35 16 -21 0 -48 -4 -60 -9z"/>
<path d="M16453 9338 c-22 -7 -33 -17 -33 -29 0 -22 5 -23 65 -7 32 9 45 17
45 30 0 20 -25 22 -77 6z"/>
<path d="M18314 9337 c-3 -8 7 -33 20 -58 29 -50 32 -82 11 -119 -8 -14 -14
-33 -15 -43 0 -30 33 -16 53 23 25 48 18 117 -17 170 -27 41 -43 50 -52 27z"/>
<path d="M16890 9324 c0 -14 14 -24 47 -36 49 -18 63 -16 63 8 0 15 -33 31
-82 41 -23 4 -28 2 -28 -13z"/>
<path d="M17470 9313 c0 -68 88 -333 111 -333 27 0 1 -34 -61 -80 -107 -79
-138 -138 -86 -161 27 -13 103 6 199 48 l58 26 32 -30 c74 -69 95 -86 159
-129 38 -26 73 -42 79 -38 7 4 9 3 6 -3 -4 -5 21 -22 54 -37 46 -21 59 -31 55
-44 -15 -48 -36 -169 -36 -207 0 -26 6 -50 16 -59 19 -20 18 -20 55 -1 22 12
42 42 82 123 l52 107 60 -12 c75 -15 217 -34 222 -29 2 2 -22 57 -52 122 -31
65 -70 148 -87 184 -22 48 -43 75 -79 103 -28 21 -54 35 -60 32 -5 -4 -8 -2
-7 4 2 6 -51 53 -117 105 -66 52 -136 107 -155 123 -142 117 -147 120 -310
163 -85 23 -163 44 -172 46 -14 4 -18 -1 -18 -23z m169 -432 c12 -16 21 -31
21 -34 0 -6 -145 -64 -182 -73 -54 -12 -22 28 77 99 28 20 53 37 57 37 4 0 16
-13 27 -29z m549 -364 c17 0 9 -24 -41 -127 -64 -130 -84 -114 -52 42 21 102
21 101 53 93 15 -4 33 -8 40 -8z"/>
<path d="M6847 9323 c-13 -13 -6 -21 37 -47 53 -31 66 -32 66 -8 0 11 -16 27
-39 40 -41 23 -53 26 -64 15z"/>
<path d="M6445 9309 c-60 -33 -67 -40 -55 -54 10 -12 20 -10 62 11 27 14 48
30 45 37 -5 16 -28 19 -52 6z"/>
<path d="M4257 9275 c-38 -35 -41 -55 -8 -55 22 0 71 50 71 73 0 26 -21 20
-63 -18z"/>
<path d="M4817 9303 c-15 -14 -5 -30 32 -51 76 -43 103 -11 28 33 -48 27 -50
28 -60 18z"/>
<path d="M12395 9300 c-67 -27 -96 -128 -56 -193 44 -71 146 -82 206 -22 31
31 35 42 35 86 0 58 -20 99 -60 123 -30 17 -92 20 -125 6z m107 -41 c11 -6 26
-26 34 -45 12 -29 12 -39 0 -68 -41 -98 -176 -71 -176 35 0 66 81 111 142 78z"/>
<path d="M15830 9303 c-71 -13 -44 -47 29 -37 40 5 51 10 49 23 -3 17 -34 22
-78 14z"/>
<path d="M5303 9274 c-42 -24 -54 -46 -33 -59 5 -3 30 8 55 25 37 26 44 34 34
46 -14 17 -6 19 -56 -12z"/>
<path d="M14880 9283 c0 -17 9 -22 51 -27 32 -4 56 -3 62 3 18 18 -5 31 -61
38 -47 5 -52 4 -52 -14z"/>
<path d="M15955 9289 c-10 -14 -3 -19 42 -30 55 -12 73 -11 73 6 0 28 -100 49
-115 24z"/>
<path d="M16322 9274 c-26 -16 -42 -32 -42 -45 0 -10 5 -19 10 -19 19 0 90 52
90 66 0 24 -16 23 -58 -2z"/>
<path d="M5855 9280 c-9 -14 -2 -23 45 -55 32 -22 43 -26 53 -16 9 10 4 20
-25 47 -38 34 -62 42 -73 24z"/>
<path d="M14753 9275 c-34 -14 -43 -32 -20 -40 20 -8 102 21 102 36 0 19 -43
22 -82 4z"/>
<path d="M15673 9265 c-44 -19 -45 -50 -2 -41 43 8 84 29 82 41 -3 16 -45 16
-80 0z"/>
<path d="M17035 9259 c-8 -11 62 -78 83 -79 23 0 12 38 -19 64 -33 28 -54 33
-64 15z"/>
<path d="M15035 9250 c-9 -15 2 -28 46 -51 67 -33 85 3 20 39 -43 24 -57 27
-66 12z"/>
<path d="M16110 9243 c0 -17 66 -63 89 -63 27 0 8 38 -28 58 -47 27 -61 28
-61 5z"/>
<path d="M3405 9228 c-59 -30 -114 -87 -125 -130 -12 -42 7 -153 42 -245 23
-62 55 -87 123 -98 60 -9 114 8 177 55 90 68 198 217 198 273 0 35 -101 108
-203 145 -75 28 -158 28 -212 0z m123 -132 c61 -31 86 -58 77 -85 -13 -42 -87
-123 -129 -141 -46 -20 -97 -17 -119 9 -17 21 -37 89 -37 130 0 43 15 68 53
91 43 27 98 25 155 -4z"/>
<path d="M6288 9210 c-35 -29 -43 -60 -14 -60 20 0 90 66 82 78 -11 19 -29 14
-68 -18z"/>
<path d="M6980 9222 c0 -23 65 -86 79 -78 18 12 13 29 -20 64 -33 35 -59 42
-59 14z"/>
<path d="M14636 9199 c-36 -31 -48 -69 -23 -69 16 0 77 61 77 77 0 25 -20 22
-54 -8z"/>
<path d="M4944 9208 c-8 -13 61 -78 83 -78 25 0 13 35 -21 63 -38 30 -51 33
-62 15z"/>
<path d="M15538 9195 c-40 -27 -47 -42 -24 -51 18 -7 98 45 93 60 -7 20 -32
17 -69 -9z"/>
<path d="M5167 9172 c-28 -29 -36 -62 -14 -62 18 1 77 57 77 75 0 24 -34 17
-63 -13z"/>
<path d="M4153 9157 c-26 -37 -30 -67 -9 -67 14 0 66 68 66 88 0 24 -36 11
-57 -21z"/>
<path d="M5980 9175 c0 -17 59 -74 77 -75 27 0 23 24 -8 56 -34 35 -69 45 -69
19z"/>
<path d="M16201 9156 c-12 -18 -21 -41 -21 -50 0 -23 25 -20 42 6 l15 22 24
-37 c23 -36 59 -50 59 -24 0 8 -13 33 -30 55 -16 23 -30 46 -30 52 0 24 -40 8
-59 -24z"/>
<path d="M15165 9160 c-7 -11 64 -80 83 -80 23 0 12 38 -19 64 -32 27 -54 33
-64 16z"/>
<path d="M17140 9131 c0 -32 29 -91 45 -91 19 0 19 31 1 75 -16 37 -46 48 -46
16z"/>
<path d="M6176 9100 c-31 -34 -40 -39 -52 -29 -26 21 -40 -5 -20 -35 9 -15 12
-26 6 -26 -11 0 -50 -72 -50 -95 0 -30 28 -14 54 29 20 35 30 43 46 39 15 -4
20 0 20 15 0 12 -4 23 -9 26 -5 3 9 24 31 46 38 37 45 59 21 67 -5 2 -27 -15
-47 -37z"/>
<path d="M15421 9095 c-35 -40 -40 -65 -13 -64 23 1 76 65 68 84 -8 23 -21 18
-55 -20z"/>
<path d="M7080 9100 c0 -34 32 -90 52 -90 23 0 23 14 -3 67 -22 45 -49 58 -49
23z"/>
<path d="M5065 9100 c-3 -5 -3 -15 1 -21 3 -6 -3 -24 -15 -40 -12 -16 -19 -34
-16 -39 10 -17 33 -11 49 12 12 17 18 20 28 10 17 -17 38 -15 38 5 0 9 -11 31
-26 50 -25 33 -47 42 -59 23z"/>
<path d="M14525 9065 c-25 -41 -26 -65 -5 -65 14 0 60 72 60 92 0 33 -29 19
-55 -27z"/>
<path d="M4072 9013 c-21 -49 -21 -63 3 -63 16 0 58 87 49 101 -12 21 -33 6
-52 -38z"/>
<path d="M15280 9044 c0 -9 9 -29 21 -45 18 -26 20 -34 9 -60 -9 -21 -10 -33
-2 -41 15 -15 29 -3 52 42 24 46 25 60 6 60 -8 0 -24 14 -36 30 -23 32 -50 40
-50 14z"/>
<path d="M16146 9041 c-4 -5 -9 -30 -12 -55 -6 -41 -5 -46 13 -46 16 0 22 9
27 38 9 57 7 72 -8 72 -8 0 -17 -4 -20 -9z"/>
<path d="M16324 8990 c11 -67 38 -103 51 -67 10 23 -20 102 -39 105 -17 4 -18
-1 -12 -38z"/>
<path d="M17176 8988 c-2 -7 -7 -32 -9 -56 -4 -33 -2 -45 10 -49 22 -9 34 16
31 66 -3 42 -23 68 -32 39z"/>
<path d="M5164 8979 c-10 -18 37 -99 58 -99 24 0 22 17 -5 64 -24 43 -41 54
-53 35z"/>
<path d="M7136 8962 c-9 -16 20 -107 35 -107 19 0 22 26 9 74 -10 38 -31 53
-44 33z"/>
<path d="M14473 8958 c-16 -20 -35 -87 -28 -98 12 -20 26 -9 46 37 19 45 19
73 1 73 -5 0 -14 -6 -19 -12z"/>
<path d="M4980 8920 c-25 -49 -25 -70 -1 -70 13 0 24 14 35 45 28 71 0 92 -34
25z"/>
<path d="M6190 8939 c0 -23 46 -89 63 -89 23 0 21 23 -5 65 -22 32 -58 48 -58
24z"/>
<path d="M18966 8928 c-8 -13 -25 -45 -38 -71 -21 -42 -33 -53 -98 -85 -96
-47 -105 -73 -33 -95 26 -8 59 -18 73 -21 22 -5 29 -16 48 -81 18 -61 26 -75
42 -75 21 0 63 58 82 111 5 15 19 31 31 35 69 21 117 48 117 66 0 17 -51 48
-122 71 -11 4 -20 26 -28 64 -12 60 -33 103 -50 103 -5 0 -16 -10 -24 -22z
m39 -115 c8 -49 14 -55 80 -81 l50 -20 -54 -18 c-49 -18 -55 -24 -84 -79 -33
-66 -31 -68 -56 31 -11 40 -12 42 -71 54 -33 7 -58 16 -55 20 2 3 31 17 64 30
55 22 60 27 81 78 25 59 33 56 45 -15z"/>
<path d="M15373 8915 c-7 -19 31 -105 47 -105 21 0 21 29 1 68 -25 48 -39 59
-48 37z"/>
<path d="M16137 8893 c-21 -20 3 -113 29 -113 13 0 15 8 9 53 -9 66 -18 81
-38 60z"/>
<path d="M6021 8833 c-16 -57 -14 -85 6 -81 17 3 47 93 37 110 -12 20 -34 5
-43 -29z"/>
<path d="M16346 8858 c-2 -7 -9 -30 -16 -52 -10 -32 -10 -40 1 -47 22 -13 41
14 46 65 5 38 3 46 -11 46 -9 0 -18 -6 -20 -12z"/>
<path d="M15255 8809 c-17 -50 -11 -80 13 -65 14 8 43 96 36 107 -13 22 -34 5
-49 -42z"/>
<path d="M5234 8800 c11 -67 38 -103 51 -67 10 23 -20 102 -39 105 -17 4 -18
-1 -12 -38z"/>
<path d="M14432 8807 c-16 -20 -19 -100 -3 -105 19 -6 31 17 31 65 0 44 -11
61 -28 40z"/>
<path d="M4940 8785 c-19 -50 -7 -103 22 -93 9 4 13 23 13 58 0 60 -19 78 -35
35z"/>
<path d="M6270 8798 c0 -26 33 -98 46 -98 21 0 22 12 7 63 -10 35 -18 47 -33
47 -11 0 -20 -5 -20 -12z"/>
<path d="M7162 8753 c2 -46 7 -59 21 -61 15 -3 17 5 17 57 0 55 -2 61 -20 61
-19 0 -21 -5 -18 -57z"/>
<path d="M15427 8773 c-6 -10 8 -101 16 -109 3 -4 13 -4 21 -1 25 10 3 117
-25 117 -4 0 -10 -3 -12 -7z"/>
<path d="M16190 8736 c0 -34 102 -52 114 -21 6 18 -1 21 -66 30 -39 5 -48 3
-48 -9z"/>
<path d="M6016 8701 c-9 -14 38 -96 57 -99 23 -5 22 14 -5 66 -22 40 -41 52
-52 33z"/>
<path d="M15235 8700 c-3 -4 -8 -29 -11 -54 -6 -37 -4 -47 10 -52 22 -8 23 -8
31 52 5 41 4 52 -9 57 -8 3 -18 2 -21 -3z"/>
<path d="M5241 8636 c-14 -58 -14 -66 4 -66 18 0 31 24 40 73 6 33 5 37 -13
37 -15 0 -22 -10 -31 -44z"/>
<path d="M6304 8633 c-4 -16 -14 -36 -22 -46 -21 -23 -1 -47 26 -31 19 12 42
72 35 91 -9 23 -32 14 -39 -14z"/>
<path d="M14418 8648 c-5 -15 7 -96 15 -104 3 -4 13 -4 21 -1 11 5 13 16 9 44
-9 61 -34 94 -45 61z"/>
<path d="M4965 8640 c-18 -29 63 -96 87 -72 8 8 1 20 -27 46 -40 38 -50 42
-60 26z"/>
<path d="M7157 8598 c-7 -55 4 -81 24 -61 7 7 14 35 17 62 4 46 3 51 -15 51
-17 0 -21 -9 -26 -52z"/>
<path d="M15423 8603 c-4 -10 -16 -30 -27 -46 -21 -29 -13 -53 16 -42 19 8 57
76 51 93 -7 18 -33 15 -40 -5z"/>
<path d="M6124 8585 c-4 -10 -1 -21 7 -26 21 -13 77 -22 95 -15 22 9 2 32 -34
39 -15 3 -35 9 -44 12 -12 5 -20 1 -24 -10z"/>
<path d="M5090 8539 c0 -23 61 -36 97 -20 40 18 22 35 -40 37 -49 2 -57 -1
-57 -17z"/>
<path d="M15250 8532 c0 -34 62 -69 90 -52 18 11 4 40 -18 40 -11 0 -25 7 -32
15 -17 21 -40 19 -40 -3z"/>
<path d="M14454 8489 c-8 -13 47 -83 70 -87 25 -5 20 25 -11 64 -29 35 -47 42
-59 23z"/>
<path d="M16723 8296 c-150 -37 -275 -142 -344 -291 -20 -44 -43 -106 -50
-137 -8 -32 -17 -58 -20 -58 -4 0 -45 24 -93 54 -109 68 -237 120 -364 146
-400 81 -759 -80 -1011 -454 -26 -39 -58 -90 -70 -113 -12 -24 -23 -43 -25
-43 -2 0 -41 18 -87 39 -202 94 -375 135 -547 129 -100 -3 -125 -7 -173 -30
-159 -73 -223 -205 -222 -458 0 -199 41 -412 133 -695 59 -181 107 -245 181
-245 119 0 217 104 491 520 246 374 290 420 399 420 92 -1 166 -47 236 -150
17 -25 72 -128 123 -230 51 -102 110 -208 131 -237 72 -97 183 -149 229 -108
10 9 33 59 50 111 33 99 61 134 107 134 33 0 114 -43 152 -81 58 -57 66 -83
66 -204 -1 -104 -4 -119 -53 -279 -67 -217 -68 -262 -3 -284 32 -11 150 0 211
19 121 40 263 134 371 246 195 203 289 453 289 768 0 201 -32 345 -118 529
l-46 98 27 24 c33 29 49 30 69 7 31 -35 48 -84 97 -269 120 -455 212 -638 419
-836 237 -226 529 -285 739 -149 124 80 241 240 310 422 35 94 60 215 50 242
-11 28 -54 31 -138 10 -43 -11 -79 -19 -79 -16 0 2 11 20 23 41 62 98 107 258
107 382 0 91 -14 145 -45 176 -50 49 -114 23 -245 -102 -50 -47 -106 -92 -126
-100 -79 -33 -120 28 -184 276 -53 206 -91 314 -141 409 -109 203 -258 318
-474 362 -104 22 -273 24 -352 5z"/>
<path d="M18908 8110 c-89 -94 -166 -177 -171 -185 -5 -10 10 -25 55 -56 92
-61 266 -241 316 -324 39 -66 92 -197 92 -228 0 -10 -23 -16 -85 -20 -175 -12
-183 -41 -53 -173 175 -179 345 -308 397 -302 19 2 44 35 118 153 187 295 244
394 250 431 l6 37 -114 -6 c-63 -4 -131 -10 -151 -13 l-37 -7 5 64 c12 121
-25 299 -86 419 -63 124 -170 244 -293 331 -39 27 -74 49 -78 49 -4 0 -81 -77
-171 -170z m323 2 c130 -123 205 -245 248 -407 17 -63 24 -194 13 -258 -5 -35
-5 -60 0 -63 5 -4 70 0 144 7 73 7 137 10 140 6 9 -8 -42 -96 -183 -319 -65
-103 -123 -194 -128 -204 -10 -16 -13 -16 -45 1 -55 28 -165 120 -293 244 -92
90 -114 117 -102 123 8 5 60 12 115 15 l100 6 0 31 c0 169 -174 431 -387 583
l-65 46 69 71 c37 39 104 108 147 153 l80 82 29 -17 c16 -9 69 -54 118 -100z"/>
<path d="M4635 8100 c-8 -14 3 -30 21 -30 28 0 62 -31 78 -71 16 -40 38 -48
44 -16 5 27 -30 88 -62 108 -34 21 -71 25 -81 9z"/>
<path d="M1310 8016 c-125 -32 -211 -84 -310 -186 -82 -85 -102 -112 -150
-204 -34 -66 -110 -263 -110 -287 0 -18 60 -69 82 -69 38 1 62 31 92 115 37
105 100 230 142 282 19 23 34 45 34 50 2 29 190 137 260 149 19 3 42 8 50 11
66 26 376 -48 476 -113 11 -8 24 -11 29 -7 4 5 5 3 2 -3 -8 -13 13 -24 44 -24
11 0 17 4 14 10 -3 5 0 7 8 4 19 -7 47 33 47 67 0 31 -47 82 -67 75 -8 -3 -12
-2 -9 3 5 7 -115 69 -147 75 -7 2 -25 8 -42 15 -109 45 -339 64 -445 37z"/>
<path d="M4617 7934 c-16 -16 -5 -32 34 -47 32 -13 43 -24 56 -56 16 -41 39
-53 49 -27 8 20 -30 90 -59 109 -31 20 -70 30 -80 21z"/>
<path d="M4826 7911 c-10 -16 1 -30 40 -46 25 -10 40 -26 52 -55 11 -26 23
-40 36 -40 36 0 2 93 -47 124 -32 21 -74 30 -81 17z"/>
<path d="M4627 7743 c-14 -13 -6 -32 16 -39 32 -9 58 -34 74 -71 16 -40 43
-44 43 -7 0 39 -31 84 -72 105 -40 20 -51 23 -61 12z"/>
<path d="M4830 7705 c0 -9 12 -20 27 -26 40 -15 61 -37 68 -70 5 -20 13 -29
26 -29 38 0 14 79 -37 119 -32 25 -84 28 -84 6z"/>
<path d="M5030 7666 c0 -8 17 -23 38 -33 23 -11 44 -32 55 -55 23 -47 47 -50
47 -7 0 23 -10 42 -39 70 -28 29 -47 39 -70 39 -20 0 -31 -5 -31 -14z"/>
<path d="M5014 7525 c-4 -9 6 -26 24 -43 22 -21 32 -42 37 -76 6 -36 11 -46
24 -44 21 4 25 28 11 79 -11 41 -58 99 -80 99 -6 0 -13 -7 -16 -15z"/>
<path d="M7801 7142 c-96 -51 -92 -185 5 -233 70 -34 143 -9 179 61 43 83 -25
190 -120 190 -17 0 -46 -8 -64 -18z m103 -32 c33 -12 61 -69 52 -104 -30 -118
-204 -80 -182 40 12 59 69 88 130 64z"/>
<path d="M11692 6720 c-47 -29 -72 -76 -72 -136 0 -65 29 -112 87 -139 l42
-20 1 -157 c0 -91 -4 -158 -9 -158 -5 0 -26 -16 -47 -35 -27 -26 -43 -34 -58
-29 -12 3 -78 24 -148 46 -128 40 -128 40 -128 71 0 68 -72 131 -151 131 -144
0 -215 -174 -110 -272 l28 -27 -47 -175 -47 -175 -36 3 c-146 13 -233 -157
-134 -262 62 -66 159 -69 225 -8 61 58 64 152 7 220 l-24 29 47 176 47 177 40
0 c51 0 104 28 133 71 13 19 27 33 30 33 4 -1 68 -21 143 -44 113 -35 136 -45
132 -60 -8 -30 18 -102 46 -131 111 -110 296 -8 266 148 -10 53 -70 110 -123
119 l-42 7 0 152 0 152 40 12 c58 17 93 68 97 139 3 45 0 64 -16 90 -30 47
-77 72 -136 72 -32 0 -62 -7 -83 -20z m146 -36 c70 -49 66 -161 -8 -199 -50
-26 -97 -20 -136 19 -29 29 -34 41 -34 81 0 40 5 52 34 81 28 28 41 34 78 34
24 0 54 -7 66 -16z m-594 -438 c48 -20 76 -61 76 -110 0 -48 -19 -80 -60 -101
-37 -19 -64 -19 -106 1 -89 42 -82 169 11 210 38 17 39 17 79 0z m638 -204
c63 -62 38 -161 -48 -191 -37 -13 -44 -12 -80 5 -26 13 -45 32 -58 58 -17 36
-18 43 -5 80 30 86 129 111 191 48z m-844 -452 c93 -57 68 -187 -40 -214 -69
-16 -143 55 -134 127 10 87 100 132 174 87z"/>
<path d="M420 6538 l0 -62 -38 37 c-21 20 -43 37 -50 37 -22 0 -12 -36 18 -65
17 -16 30 -32 30 -36 0 -5 -30 -9 -67 -11 -53 -2 -68 -6 -68 -18 0 -11 16 -16
63 -20 l62 -5 -45 -28 c-43 -28 -56 -49 -35 -62 5 -3 33 10 62 30 29 19 56 35
61 35 5 0 7 -30 5 -67 -2 -56 0 -68 14 -71 13 -3 18 9 24 65 l7 67 32 -37 c18
-20 40 -37 49 -37 27 0 18 34 -20 71 l-35 34 58 5 c43 4 58 9 58 20 0 10 -14
17 -44 20 l-45 5 42 28 c43 28 56 57 25 57 -10 -1 -40 -16 -68 -35 l-50 -34
-3 69 c-3 62 -5 70 -22 70 -18 0 -20 -7 -20 -62z"/>
<path d="M9508 6503 c-31 -67 -32 -68 -110 -106 -67 -32 -79 -41 -76 -60 2
-18 16 -26 75 -42 l73 -20 20 -66 c20 -67 41 -96 60 -84 6 4 26 37 44 74 33
64 37 68 99 95 36 15 68 34 71 41 7 19 -21 39 -83 62 l-54 20 -21 74 c-18 62
-25 75 -44 77 -20 3 -27 -6 -54 -65z m141 -138 l53 -22 -53 -22 c-49 -20 -56
-27 -78 -76 -13 -30 -27 -53 -31 -50 -4 3 -13 27 -20 54 -14 59 -22 67 -75 75
-70 12 -70 21 -1 50 61 26 65 30 87 84 l23 56 20 -64 c21 -62 22 -64 75 -85z"/>
<path d="M15094 6518 c39 -181 44 -267 20 -328 -13 -31 -22 -40 -40 -40 -35 0
-71 63 -120 208 -43 127 -54 149 -73 138 -18 -11 -13 -43 25 -155 56 -170 106
-241 168 -241 42 0 80 40 97 103 14 53 5 189 -19 277 -14 55 -21 66 -41 68
-22 4 -23 1 -17 -30z"/>
<path d="M14630 6441 c0 -10 7 -54 16 -96 10 -48 15 -110 12 -166 -2 -75 -6
-92 -25 -111 l-23 -22 -26 25 c-33 30 -74 117 -109 234 -31 103 -39 115 -60
94 -13 -13 -12 -25 11 -104 48 -170 127 -295 184 -295 30 0 78 48 90 88 13 47
13 194 -1 252 -24 107 -29 120 -49 120 -13 0 -20 -7 -20 -19z"/>
<path d="M15777 6419 c-114 -19 -156 -134 -106 -295 36 -117 108 -164 173
-113 55 43 74 114 46 176 -23 52 -61 73 -135 73 -52 0 -55 1 -55 26 0 52 61
91 131 85 19 -2 43 24 35 37 -8 14 -46 19 -89 11z m38 -215 c43 -17 48 -102 9
-145 -43 -48 -87 -2 -118 124 -6 27 -6 27 43 27 27 0 57 -3 66 -6z"/>
<path d="M19085 6158 c-16 -6 -44 -21 -62 -34 l-31 -24 -57 26 c-78 36 -169
42 -212 15 -43 -27 -63 -60 -71 -118 l-7 -48 -45 -5 c-59 -8 -79 -20 -129 -76
-75 -86 -90 -204 -35 -287 29 -44 101 -93 159 -109 32 -9 44 -20 60 -52 31
-60 87 -86 185 -86 98 0 172 14 232 43 l47 23 25 -25 c21 -20 38 -26 91 -29
58 -4 73 -1 131 28 79 39 161 118 197 191 36 70 37 157 4 211 -27 46 -80 86
-123 94 -33 6 -37 11 -49 71 -8 42 -63 117 -111 152 -68 49 -134 62 -199 39z
m123 -43 c68 -29 138 -112 155 -185 5 -22 1 -27 -36 -43 -53 -22 -80 -45 -106
-88 -25 -41 -26 -62 -5 -83 21 -21 49 -20 99 4 44 21 85 79 85 120 0 37 56 19
108 -34 38 -41 42 -49 42 -96 0 -174 -266 -371 -375 -277 l-27 23 22 37 c40
67 14 187 -40 187 -52 0 -87 -111 -56 -183 l16 -38 -56 -26 c-40 -18 -79 -27
-139 -31 -108 -6 -148 2 -185 39 -33 34 -38 49 -14 49 30 0 80 30 97 59 23 39
21 96 -4 137 -57 92 -158 23 -159 -108 0 -27 -2 -48 -5 -48 -3 0 -22 7 -42 15
-162 68 -186 228 -53 349 40 36 45 38 99 34 l56 -3 5 60 c11 127 69 160 197
115 31 -11 61 -24 65 -28 5 -5 0 -28 -11 -53 -44 -95 -13 -178 66 -179 74 0
99 99 47 187 -14 24 -22 48 -18 54 9 16 85 49 112 49 12 0 39 -7 60 -15z
m-185 -114 c17 -29 22 -76 11 -105 -14 -36 -74 -2 -74 41 0 29 26 93 37 93 5
0 16 -13 26 -29z m337 -161 c0 -27 -58 -88 -92 -96 -36 -8 -36 5 -1 47 22 25
78 69 91 69 1 0 2 -9 2 -20z m-605 -180 c23 -45 19 -75 -16 -104 -17 -14 -39
-26 -50 -26 -15 0 -19 7 -19 39 0 36 19 97 36 114 15 15 34 6 49 -23z m391
-56 c8 -32 -6 -96 -23 -101 -16 -6 -26 67 -14 100 13 34 29 35 37 1z"/>
<path d="M8692 6113 c2 -10 12 -19 23 -21 27 -5 72 -49 79 -78 7 -24 30 -32
41 -14 11 18 -33 94 -64 113 -39 23 -84 23 -79 0z"/>
<path d="M8677 5953 c-15 -15 -5 -30 32 -46 29 -13 43 -28 55 -57 18 -46 46
-54 46 -14 0 38 -35 89 -74 108 -37 18 -49 19 -59 9z"/>
<path d="M8884 5926 c-4 -9 -5 -18 -3 -19 2 -2 21 -10 42 -20 29 -13 43 -28
54 -57 15 -38 35 -51 48 -30 10 16 -31 97 -57 113 -39 26 -77 32 -84 13z"/>
<path d="M15071 5830 c-15 -9 -12 -35 15 -167 4 -21 2 -21 -46 9 -61 38 -137
49 -174 25 -14 -9 -33 -40 -44 -69 l-19 -52 -19 78 c-18 76 -34 100 -56 78
-13 -13 6 -108 39 -187 21 -50 25 -78 26 -167 2 -101 3 -108 32 -150 37 -52
80 -70 149 -62 94 10 150 46 189 119 30 55 29 169 -1 243 -12 29 -22 68 -22
86 0 52 -30 200 -43 213 -8 8 -17 9 -26 3z"/>
<path d="M1061 5764 c-31 -26 -57 -93 -47 -120 11 -28 32 -13 43 29 9 31 23
52 48 71 19 15 33 32 30 37 -11 17 -43 9 -74 -17z"/>
<path d="M1243 5761 c-45 -21 -71 -52 -75 -91 -4 -37 26 -38 42 -1 13 33 43
56 84 67 18 4 26 12 24 23 -5 23 -27 24 -75 2z"/>
<path d="M8674 5758 c-7 -11 21 -38 41 -38 15 0 48 -38 63 -73 13 -31 35 -32
40 -1 8 59 -117 156 -144 112z"/>
<path d="M8893 5743 c-25 -9 -12 -30 28 -46 32 -13 43 -24 56 -56 16 -42 53
-59 53 -25 0 63 -88 143 -137 127z"/>
<path d="M12711 5716 c-10 -12 -5 -22 22 -53 84 -93 148 -221 182 -360 18 -74
16 -103 -8 -103 -30 0 -142 85 -250 189 -63 61 -121 111 -130 111 -35 0 -20
-30 60 -120 117 -131 177 -229 177 -289 1 -45 0 -46 -31 -49 -17 -2 -46 4 -64
14 -44 22 -130 105 -192 184 -62 78 -68 83 -86 66 -11 -12 -6 -25 32 -88 131
-216 162 -334 74 -279 -40 24 -166 154 -217 224 -23 31 -41 46 -54 44 -34 -4
-28 -23 32 -98 83 -104 179 -196 231 -221 40 -19 47 -20 70 -7 41 23 47 58 25
127 l-20 60 31 -23 c51 -38 92 -55 135 -55 83 0 113 74 71 173 l-19 45 55 -29
c75 -40 106 -38 131 6 10 18 12 16 12 -15 2 -61 23 -115 45 -115 15 0 19 6 17
25 -14 133 -14 193 3 238 26 69 87 146 155 194 33 23 60 45 60 49 0 3 -6 12
-14 18 -12 10 -23 7 -57 -15 -95 -59 -158 -141 -200 -259 -11 -31 -18 -42 -18
-28 -2 43 -61 208 -100 279 -38 67 -124 174 -141 174 -4 0 -13 -6 -19 -14z"/>
<path d="M9097 5703 c-15 -14 -6 -34 20 -44 40 -15 61 -37 68 -70 5 -20 13
-29 26 -29 40 0 8 91 -43 123 -31 20 -63 29 -71 20z"/>
<path d="M1084 5571 c-56 -34 -85 -141 -41 -149 13 -3 17 3 17 23 0 37 24 78
54 95 27 14 36 50 14 50 -7 0 -27 -9 -44 -19z"/>
<path d="M9064 5549 c-3 -6 7 -24 24 -39 30 -27 38 -46 44 -100 2 -14 10 -26
21 -28 14 -3 17 4 17 45 0 49 -19 90 -56 118 -23 17 -40 19 -50 4z"/>
<path d="M883 5513 c-32 -30 -59 -94 -49 -118 11 -29 32 -14 44 30 9 35 20 50
47 67 20 11 34 26 32 32 -7 22 -44 17 -74 -11z"/>
<path d="M15756 5518 c-20 -75 -86 -227 -123 -288 -65 -105 -163 -199 -249
-240 -100 -46 -99 -46 -99 -61 0 -27 42 -20 124 22 148 74 267 215 346 413 42
102 49 158 22 164 -9 2 -19 -2 -21 -10z"/>
<path d="M1095 5349 c-52 -46 -72 -145 -26 -137 11 2 17 16 19 40 3 29 12 45
44 72 38 33 43 56 13 56 -8 0 -30 -14 -50 -31z"/>
<path d="M17485 5339 c-138 -12 -167 -18 -158 -32 5 -9 3 -9 -8 0 -12 10 -30
10 -75 2 -32 -5 -72 -12 -89 -14 -16 -2 -50 -7 -75 -10 -41 -6 -163 -28 -218
-41 l-23 -5 21 -29 c12 -17 26 -27 32 -24 6 4 8 2 4 -4 -8 -13 39 -103 50 -94
4 4 4 2 1 -4 -4 -7 0 -28 8 -48 46 -110 67 -371 46 -571 -22 -200 -76 -427
-127 -528 -14 -26 -22 -53 -18 -59 4 -7 3 -8 -4 -4 -7 4 -12 3 -12 -2 0 -4
-16 -27 -35 -49 -19 -22 -31 -44 -27 -48 4 -3 2 -5 -3 -4 -6 2 -30 -7 -54 -20
-37 -20 -54 -22 -110 -18 -94 8 -104 10 -126 30 -10 10 -25 15 -33 12 -7 -2
-11 -1 -8 3 3 5 -9 17 -27 27 -18 10 -66 49 -108 86 -42 38 -80 65 -84 61 -5
-4 -5 -2 -2 4 8 14 -17 37 -28 26 -5 -4 -5 -2 -2 4 3 6 -28 44 -69 85 l-75 74
-19 -23 c-10 -13 -41 -80 -69 -151 -27 -70 -69 -168 -92 -217 -24 -49 -43 -95
-42 -101 0 -7 -3 -11 -7 -8 -4 2 -16 -13 -28 -33 -28 -47 -57 -82 -70 -82 -5
0 -15 -7 -22 -15 -18 -22 -98 -19 -134 4 -17 11 -35 17 -40 14 -6 -3 -8 -3 -4
2 4 4 -11 32 -34 62 -55 75 -103 182 -134 300 -30 112 -30 112 -40 253 -8 128
8 285 41 387 12 40 21 73 19 73 -8 0 -139 -69 -167 -88 -15 -10 -24 -22 -20
-27 5 -4 3 -5 -4 -2 -12 7 -79 -40 -161 -113 -27 -25 -76 -65 -107 -90 -72
-58 -153 -152 -228 -265 -70 -106 -239 -443 -230 -458 3 -5 1 -7 -4 -4 -6 4
-17 -8 -24 -26 -13 -33 -63 -112 -86 -135 -7 -8 -10 -19 -7 -25 5 -9 4 -9 -5
-1 -7 6 -33 83 -57 170 -25 88 -56 195 -71 238 l-26 79 -166 -6 -166 -6 -32
196 c-18 107 -34 197 -36 200 -3 2 -40 -13 -83 -34 -195 -95 -392 -141 -439
-103 -27 23 -78 107 -110 183 l-29 68 -17 -83 c-9 -46 -24 -100 -33 -122 -9
-21 -13 -43 -9 -50 3 -6 2 -8 -2 -3 -5 4 -16 0 -25 -8 -40 -36 -324 -85 -496
-85 l-96 0 7 -102 c4 -57 10 -139 15 -183 5 -44 6 -83 2 -86 -4 -3 -119 -25
-257 -48 -301 -52 -1283 -229 -1307 -237 -10 -3 -18 -10 -18 -15 0 -5 156
-539 346 -1187 190 -647 377 -1285 416 -1417 38 -132 71 -241 71 -241 4 -4
4366 182 4370 186 11 11 27 220 27 341 l0 130 228 -3 c125 -2 229 -6 232 -9
11 -14 858 -32 1220 -26 596 9 912 53 1124 156 132 64 160 103 223 309 20 68
23 86 12 98 -10 12 -10 15 1 12 16 -4 29 40 34 115 3 33 7 61 10 65 3 3 6 27
6 52 0 30 6 52 15 60 24 20 116 169 150 244 90 196 123 447 94 714 -20 186
-102 537 -123 525 -5 -3 -6 -1 -2 5 8 14 -14 92 -26 92 -5 0 -7 4 -4 9 6 10
-44 145 -56 149 -4 2 -6 7 -3 12 6 10 -68 185 -148 350 -127 264 -371 685
-389 674 -6 -4 -8 -3 -4 4 8 13 -31 82 -47 82 -6 0 -8 3 -4 6 20 20 -142 252
-166 237 -6 -3 -7 -1 -4 4 6 10 -47 63 -110 109 -34 25 -133 76 -133 69 0 -3
-10 1 -22 9 -13 8 -34 17 -48 20 -14 3 -52 12 -85 20 -140 34 -374 44 -600 25z
m631 -439 c26 0 82 -66 89 -102 7 -35 6 -38 -17 -38 -18 0 -28 9 -39 33 -9 21
-28 38 -56 52 -40 18 -54 41 -36 59 4 4 17 5 28 2 11 -3 25 -6 31 -6z m-2
-184 c18 -7 42 -26 54 -40 25 -33 39 -89 23 -94 -6 -2 -8 -8 -5 -14 3 -5 -3
-4 -15 4 -12 7 -21 18 -21 25 0 22 -51 72 -80 78 -23 5 -30 12 -30 31 0 28 23
31 74 10z m227 -11 c66 -35 98 -153 35 -129 -9 3 -16 12 -16 19 0 23 -41 65
-73 73 -22 6 -33 15 -35 30 -3 19 1 22 28 22 17 0 44 -7 61 -15z m-184 -190
c28 -19 63 -72 63 -97 0 -10 -8 -22 -19 -27 -16 -9 -21 -6 -31 19 -15 37 -64
80 -91 80 -13 0 -19 7 -19 23 0 13 3 26 6 29 8 8 61 -8 91 -27z m190 3 c15 -6
33 -10 38 -9 6 2 7 0 3 -4 -3 -4 5 -23 18 -43 27 -40 28 -75 2 -80 -11 -2 -23
8 -33 27 -21 42 -55 71 -82 71 -18 0 -23 6 -23 25 0 20 5 25 24 25 14 0 37 -5
53 -12z m196 -22 c43 -18 87 -71 87 -105 0 -15 -3 -31 -6 -34 -12 -11 -42 12
-48 37 -6 25 -61 66 -90 66 -9 0 -16 8 -16 18 0 35 21 40 73 18z m-23 -110 c0
-2 -7 -7 -16 -10 -8 -3 -12 -2 -9 4 6 10 25 14 25 6z m1 -43 c33 -20 65 -80
72 -134 4 -36 4 -36 -27 -29 -21 4 -30 11 -28 23 5 29 -26 87 -53 97 -14 5
-25 17 -25 28 0 36 18 40 61 15z m-4809 -976 c110 -102 411 -617 426 -730 l5
-40 -61 6 c-34 4 -122 27 -194 51 -148 49 -588 222 -602 236 -17 17 13 84 73
164 72 96 297 336 315 336 7 0 24 -10 38 -23z m3294 -567 c12 0 33 -9 46 -20
14 -10 29 -16 33 -12 5 4 5 2 1 -5 -3 -6 16 -69 44 -138 88 -221 121 -370 88
-392 -7 -4 -33 -15 -57 -23 -25 -8 -46 -19 -48 -25 -3 -9 153 -72 168 -68 3 1
21 -10 39 -25 29 -24 35 -40 56 -132 13 -58 24 -115 24 -127 0 -13 4 -23 8
-23 5 0 6 -19 3 -42 -6 -39 -10 -45 -64 -75 -93 -52 -203 -78 -333 -78 -129 0
-137 4 -178 90 l-25 53 -169 -5 c-92 -3 -186 -2 -208 2 l-39 7 55 19 c99 34
150 61 150 81 0 25 -26 23 -95 -8 -183 -81 -416 -92 -601 -28 -86 29 -94 30
-94 4 0 -11 -7 -23 -15 -26 -8 -4 -15 -13 -15 -21 0 -8 -4 -12 -9 -9 -5 3 -31
-13 -57 -37 -102 -89 -211 -175 -233 -182 -14 -4 -20 -12 -17 -23 3 -9 8 -30
12 -47 13 -61 47 -170 56 -182 13 -16 -10 -21 -162 -29 -69 -3 -204 -14 -300
-24 -96 -9 -178 -14 -182 -11 -7 7 -168 624 -168 646 0 9 20 24 48 36 69 30
122 69 122 91 0 41 53 173 94 237 111 170 263 262 509 306 82 15 127 16 275
10 203 -8 253 -9 562 -4 124 2 238 0 254 -4 27 -8 28 -7 23 20 -7 33 -22 72
-39 95 -7 9 -9 20 -6 23 18 18 271 97 326 102 34 3 65 10 68 15 4 6 11 5 17
-1 6 -6 21 -11 33 -11z m-3951 -129 c113 -52 153 -172 121 -357 -18 -107 -63
-244 -114 -356 l-37 -79 -83 50 c-259 155 -438 326 -471 447 -16 61 -4 101 49
156 43 45 50 48 97 48 60 0 110 -32 171 -109 l40 -50 4 77 c5 89 33 153 76
176 37 21 99 19 147 -3z m-605 -750 c0 -42 -5 -93 -9 -115 -9 -38 -9 -38 30
-54 21 -8 39 -19 39 -24 0 -5 4 -7 9 -4 12 8 171 -65 165 -75 -3 -5 1 -6 9 -3
19 7 71 -41 64 -60 -8 -21 -107 -54 -215 -72 -53 -8 -97 -16 -98 -17 -1 -1 -6
-69 -12 -152 -6 -94 -14 -151 -21 -153 -6 -2 -8 -8 -5 -14 4 -6 -3 -8 -17 -6
-13 2 -23 9 -21 16 1 8 -1 11 -6 8 -9 -5 -67 47 -132 120 l-46 51 -94 -29
c-178 -54 -280 -61 -280 -17 0 31 31 90 43 82 5 -3 7 -1 4 5 -8 11 50 88 103
137 52 49 54 58 20 113 -44 71 -89 174 -96 221 -6 37 -5 40 21 47 44 11 115
-2 216 -40 l94 -36 33 40 c19 22 38 38 43 35 5 -4 6 0 3 8 -5 14 43 54 59 49
5 -1 6 2 2 8 -3 5 9 19 27 30 l33 20 18 -21 c13 -16 17 -39 17 -98z m1942 -40
c9 -1 22 -67 48 -231 11 -74 23 -150 26 -167 3 -18 1 -33 -3 -33 -5 0 -103
-16 -218 -35 -417 -68 -657 -98 -750 -93 l-60 3 -13 40 c-17 50 -102 418 -98
422 12 12 986 103 1041 97 11 -2 23 -3 27 -3z m337 -765 c8 -10 8 -16 -1 -24
-14 -11 -2773 -166 -2788 -157 -9 5 -14 33 -7 36 1 1 619 36 1372 79 754 43
1380 78 1391 79 12 0 27 -5 33 -13z"/>
<path d="M15367 2285 c-82 -68 -145 -146 -196 -245 -59 -112 -90 -257 -60
-276 19 -12 33 15 46 88 23 138 125 300 253 403 60 48 78 85 42 85 -10 0 -48
-25 -85 -55z"/>
<path d="M15571 2118 c-96 -96 -182 -220 -222 -321 -35 -90 -37 -120 -8 -115
16 2 25 15 34 44 33 112 109 228 238 361 49 50 86 96 82 102 -15 25 -47 7
-124 -71z"/>
<path d="M916 5308 c-47 -35 -75 -129 -42 -141 18 -7 26 1 26 27 0 30 35 83
59 91 26 8 28 45 4 45 -10 0 -31 -10 -47 -22z"/>
<path d="M730 5282 c-30 -30 -53 -93 -43 -118 8 -21 37 -13 41 11 8 54 15 68
47 87 19 11 35 26 35 34 0 25 -50 16 -80 -14z"/>
<path d="M13428 5095 c-3 -4 -4 -32 -1 -63 9 -107 -58 -186 -188 -222 -50 -13
-64 -21 -64 -36 0 -15 7 -19 36 -17 108 6 236 97 259 184 15 55 2 152 -20 157
-9 1 -19 0 -22 -3z"/>
<path d="M19486 4888 c-3 -7 -8 -35 -11 -63 l-7 -50 -31 38 c-18 20 -37 37
-44 37 -25 0 -23 -22 6 -59 17 -21 31 -41 31 -44 0 -3 -30 -4 -67 -4 -55 2
-68 -1 -68 -13 0 -11 15 -17 53 -21 29 -4 56 -9 59 -12 3 -3 -13 -15 -35 -26
-47 -24 -59 -38 -43 -54 9 -9 27 -3 72 22 l60 33 -3 -74 c-2 -60 0 -73 12 -73
11 0 18 19 25 68 l10 69 30 -41 c17 -22 36 -43 43 -45 20 -9 26 22 8 47 -9 12
-23 32 -32 45 l-16 22 57 0 c48 0 56 2 53 18 -2 12 -16 19 -43 22 l-40 5 43
24 c25 15 42 32 42 43 0 26 -14 23 -81 -17 l-59 -34 2 71 c2 50 -1 72 -9 75
-7 3 -15 -1 -17 -9z"/>
<path d="M11179 4737 c-20 -8 -50 -23 -66 -35 l-30 -21 -62 25 c-85 35 -156
41 -201 17 -41 -21 -72 -71 -80 -127 -3 -26 -11 -41 -20 -43 -69 -9 -92 -18
-129 -49 -95 -82 -126 -225 -68 -313 31 -47 102 -96 162 -113 32 -9 44 -20 60
-52 32 -62 87 -86 194 -86 99 1 156 11 224 42 l47 21 23 -22 c132 -123 450 91
450 304 0 90 -67 174 -150 191 -28 5 -33 12 -43 55 -12 48 -55 117 -94 152
-64 54 -155 77 -217 54z m105 -38 c69 -19 150 -111 170 -191 5 -23 2 -28 -27
-37 -43 -14 -103 -65 -123 -103 -19 -37 -11 -74 17 -83 62 -20 144 36 167 113
7 23 17 42 23 42 39 0 116 -72 129 -121 44 -163 -249 -406 -373 -309 l-26 21
21 40 c38 74 9 195 -45 187 -51 -8 -80 -102 -54 -176 14 -41 14 -43 -7 -57
-57 -37 -247 -59 -310 -35 -31 11 -66 45 -66 64 0 7 14 16 31 20 17 3 44 20
60 37 71 76 2 231 -85 191 -30 -14 -59 -75 -64 -139 -2 -29 -6 -53 -9 -53 -2
0 -20 7 -40 15 -151 63 -184 210 -74 328 39 43 77 59 129 55 l47 -3 5 60 c3
33 11 70 18 82 14 26 61 53 90 53 28 0 150 -39 157 -49 3 -5 -4 -29 -15 -52
-35 -79 -19 -154 38 -178 34 -14 76 -2 91 28 20 37 13 111 -15 159 l-27 45 24
18 c22 17 68 36 94 38 6 1 27 -4 49 -10z m-171 -118 c41 -69 6 -160 -43 -111
-24 24 -25 58 -6 105 18 43 27 44 49 6z m337 -163 c0 -47 -86 -116 -112 -90
-9 9 0 23 35 57 47 44 77 57 77 33z m-606 -170 c37 -53 1 -138 -59 -138 -22 0
-25 4 -25 38 0 46 34 122 54 122 8 0 22 -10 30 -22z m390 -54 c10 -26 6 -78
-8 -103 l-13 -24 -12 33 c-14 40 -14 51 -1 84 11 29 25 34 34 10z"/>
<path d="M2188 4278 c-8 -22 90 -2200 99 -2208 8 -8 5567 136 5590 144 11 5
13 185 11 1038 -3 1025 -3 1033 -23 1033 -20 0 -20 -8 -23 -1012 -2 -956 -3
-1013 -20 -1014 -321 -10 -5488 -144 -5491 -142 -3 2 -26 490 -52 1086 -26
595 -48 1083 -48 1085 -3 8 -40 0 -43 -10z"/>
<path d="M466 3838 c-8 -13 -24 -44 -36 -70 -18 -42 -28 -50 -96 -83 -109 -53
-111 -84 -6 -106 31 -7 61 -16 66 -20 5 -5 19 -39 31 -76 18 -58 24 -68 44
-68 19 0 31 14 60 70 34 66 39 70 95 92 33 13 64 27 70 33 18 18 -7 43 -74 69
l-63 26 -21 75 c-23 82 -43 99 -70 58z m43 -112 c12 -53 14 -55 59 -72 68 -25
69 -29 14 -49 -45 -16 -52 -24 -79 -79 l-31 -61 -19 65 -19 65 -64 15 -64 16
70 31 c66 29 70 33 88 82 10 28 21 49 25 46 4 -2 13 -29 20 -59z"/>
<path d="M9145 3440 c-56 -17 -105 -91 -105 -156 0 -20 -5 -24 -30 -24 -108 0
-210 -124 -210 -256 0 -53 5 -68 33 -110 33 -49 131 -114 172 -114 13 0 28
-14 43 -43 36 -68 86 -91 194 -90 96 1 173 16 231 45 l38 19 30 -25 c57 -48
133 -46 232 6 164 87 255 264 197 383 -26 53 -85 101 -136 111 -26 5 -34 11
-34 28 0 65 -83 177 -160 216 -70 36 -174 24 -232 -27 -15 -13 -24 -12 -80 10
-74 30 -141 40 -183 27z m158 -62 c26 -11 47 -25 47 -30 0 -5 -7 -23 -16 -40
-9 -17 -17 -54 -17 -81 -1 -44 3 -53 31 -78 39 -35 62 -36 99 -5 24 21 28 31
28 78 0 42 -6 64 -27 95 -25 38 -26 42 -10 56 56 48 137 51 204 7 60 -40 118
-126 118 -174 0 -8 -25 -26 -55 -41 -61 -29 -105 -83 -105 -126 0 -38 23 -53
71 -46 52 7 94 46 117 109 9 27 21 48 27 48 27 -1 92 -50 113 -85 45 -78 13
-174 -90 -271 -60 -57 -92 -76 -156 -94 -49 -13 -98 -2 -126 29 -14 15 -14 20
-2 30 25 21 39 93 27 139 -22 81 -73 96 -106 31 -18 -34 -20 -118 -3 -154 15
-33 -4 -48 -87 -69 -139 -35 -228 -28 -278 22 -31 31 -29 52 4 52 10 0 36 15
57 34 33 31 37 39 36 84 0 34 -7 59 -23 80 -60 85 -142 28 -158 -109 -7 -56
-13 -57 -90 -13 -101 58 -122 171 -53 275 41 62 98 93 156 84 l44 -6 0 46 c0
75 35 136 85 148 30 7 84 -3 138 -25z m117 -98 c25 -49 25 -71 1 -101 l-20
-24 -22 22 c-13 13 -22 34 -22 51 0 34 21 92 34 92 5 0 18 -18 29 -40z m329
-170 c-13 -35 -63 -80 -90 -80 -37 0 -10 53 46 90 44 29 56 26 44 -10z m-595
-175 c17 -34 18 -41 5 -64 -17 -30 -79 -65 -92 -52 -24 24 27 168 56 159 7 -2
21 -21 31 -43z m388 -53 c10 -39 -17 -116 -32 -92 -11 17 -13 90 -4 115 10 24
27 13 36 -23z"/>
<path d="M5634 3388 l-19 -23 23 19 c12 11 22 21 22 23 0 8 -8 2 -26 -19z"/>
<path d="M773 3211 c-26 -21 -81 -73 -122 -114 l-74 -75 7 -49 c9 -69 61 -283
92 -375 31 -95 56 -128 94 -128 33 0 128 61 184 119 l40 40 43 -76 c57 -99
129 -200 153 -213 38 -21 59 -12 66 27 14 76 -14 527 -42 681 -12 61 -40 57
-173 -23 -51 -31 -94 -55 -95 -53 -1 2 -14 49 -29 106 -32 125 -53 172 -77
172 -10 0 -40 -18 -67 -39z m85 -73 c11 -35 28 -98 38 -142 10 -43 24 -80 31
-83 7 -3 55 22 105 55 126 80 137 86 143 70 12 -36 36 -315 41 -483 l5 -190
-34 39 c-20 22 -64 89 -99 148 -34 60 -68 116 -74 125 -10 15 -22 8 -93 -58
-98 -91 -143 -118 -165 -100 -8 7 -26 47 -40 89 -38 115 -98 371 -91 392 7 21
189 200 204 200 6 0 19 -28 29 -62z"/>
<path d="M4805 2871 c-3 -5 -2 -12 3 -15 5 -3 9 1 9 9 0 17 -3 19 -12 6z"/>
<path d="M9209 2351 c-31 -10 -102 -42 -159 -70 -99 -51 -104 -52 -146 -42
-81 21 -155 14 -222 -20 -66 -32 -140 -106 -173 -172 -34 -66 -17 -84 84 -86
45 -1 47 -2 47 -30 0 -17 11 -43 26 -60 l26 -31 -31 -35 c-17 -20 -31 -39 -31
-44 0 -35 216 -251 251 -251 12 0 37 10 56 21 l35 22 38 -38 c36 -36 41 -38
66 -26 15 6 29 10 31 7 3 -3 9 -37 13 -77 10 -91 24 -107 74 -84 43 21 146
128 169 178 31 63 37 127 22 201 l-14 68 54 79 c59 87 87 152 105 247 34 173
-30 262 -190 261 -44 0 -98 -8 -131 -18z m38 -270 l163 -169 -63 -88 c-63 -88
-210 -246 -261 -279 l-27 -18 -150 149 c-196 194 -232 238 -224 264 9 27 95
113 175 175 57 44 206 135 220 135 3 0 78 -76 167 -169z m-418 -392 c97 -103
102 -111 85 -124 -11 -8 -23 -15 -28 -15 -11 0 -185 169 -198 193 -7 14 -5 24
8 38 9 10 20 19 23 19 4 0 53 -50 110 -111z"/>
<path d="M9000 2089 c-32 -13 -78 -56 -96 -91 -17 -32 -18 -115 -3 -155 36
-95 159 -139 257 -92 102 50 133 192 60 284 -44 56 -148 82 -218 54z m147 -49
c67 -40 87 -109 55 -183 -47 -107 -190 -115 -253 -14 -30 48 -22 127 17 168
16 17 38 35 49 39 36 15 99 11 132 -10z"/>
<path d="M9009 2021 c-18 -15 -21 -22 -12 -31 8 -9 19 -9 47 1 33 12 38 11 59
-9 13 -12 29 -22 35 -22 22 0 12 38 -14 59 -33 26 -85 27 -115 2z"/>
<path d="M760 1998 c-76 -52 -98 -125 -61 -201 26 -53 61 -79 116 -87 l40 -5
33 -171 34 -170 -25 -38 c-33 -48 -41 -85 -27 -135 22 -83 109 -133 192 -111
38 11 68 34 109 86 15 19 31 21 195 27 159 6 180 5 189 -10 32 -52 69 -83 106
-89 22 -4 42 -10 45 -15 3 -5 2 -83 -2 -174 -6 -142 -9 -165 -23 -165 -27 0
-80 -38 -101 -72 -13 -21 -20 -51 -20 -83 0 -93 62 -155 155 -155 94 0 159 72
154 167 l-3 47 144 43 144 43 24 -30 c32 -41 72 -60 124 -60 94 0 162 72 155
166 -6 90 -67 146 -158 146 -83 0 -139 -51 -154 -139 l-7 -42 -116 -36 c-64
-20 -130 -40 -146 -45 -24 -8 -33 -6 -58 15 -16 14 -40 28 -54 31 -28 7 -29
21 -17 232 l6 122 33 20 c93 54 99 199 11 262 -42 30 -121 35 -167 10 -43 -23
-80 -75 -80 -112 0 -27 0 -27 -92 -34 -50 -3 -133 -6 -185 -6 -80 0 -93 2 -93
17 0 9 -9 35 -20 58 -28 58 -85 89 -151 83 -27 -3 -49 -5 -49 -4 0 1 -14 71
-30 156 -16 85 -30 160 -30 165 0 6 14 19 31 29 34 20 68 85 69 130 1 117
-145 198 -240 134z m154 -49 c43 -37 54 -81 33 -132 -37 -88 -170 -90 -212 -1
-23 50 -13 95 31 133 48 43 100 43 148 0z m846 -604 c37 -19 60 -62 60 -111 0
-28 -8 -44 -34 -70 -29 -29 -41 -34 -81 -34 -40 0 -52 5 -81 34 -28 28 -34 42
-34 76 0 52 13 76 53 100 38 24 78 25 117 5z m-658 -33 c41 -41 47 -96 16
-142 -43 -63 -124 -72 -177 -19 -36 35 -45 80 -26 124 32 77 129 96 187 37z
m1266 -418 c99 -69 40 -227 -80 -211 -46 6 -75 29 -95 75 -29 70 30 152 111
152 23 0 52 -7 64 -16z m-590 -210 c70 -49 66 -161 -8 -199 -50 -26 -97 -20
-136 19 -29 29 -34 41 -34 81 0 40 5 52 34 81 28 28 41 34 78 34 24 0 54 -7
66 -16z"/>
<path d="M8505 1684 c-56 -21 -98 -65 -134 -142 -35 -77 -66 -236 -56 -292 6
-36 9 -39 58 -51 29 -8 95 -13 147 -13 115 0 183 25 230 84 37 47 70 117 70
150 0 42 -34 103 -100 179 -85 99 -129 116 -215 85z m151 -72 c6 -4 30 -29 54
-56 39 -46 42 -53 37 -94 -9 -83 -87 -131 -189 -117 -67 9 -82 26 -73 84 4 25
16 71 28 101 17 43 30 59 57 72 37 19 68 22 86 10z"/>
<path d="M4515 1275 c-9 -20 -15 -43 -13 -52 6 -33 27 -23 47 23 26 57 26 64
2 64 -12 0 -25 -13 -36 -35z"/>
<path d="M5833 1214 c-35 -15 -42 -31 -19 -40 21 -8 101 22 101 37 0 19 -43
21 -82 3z"/>
<path d="M11021 1202 c-6 -11 -11 -42 -11 -69 l-1 -48 -37 43 c-62 71 -89 44
-30 -31 l32 -40 -68 5 c-53 5 -69 3 -73 -9 -8 -21 0 -25 64 -32 l58 -6 -47
-28 c-48 -28 -63 -57 -30 -57 9 0 35 11 57 25 22 13 45 25 50 25 6 0 9 -28 7
-71 -3 -64 -2 -70 15 -67 14 2 19 14 21 53 4 79 8 82 51 34 31 -35 42 -41 52
-32 13 13 9 20 -42 86 l-22 29 59 -4 c49 -2 59 0 62 15 2 12 -3 17 -20 18 -13
0 -32 4 -43 8 -18 7 -15 11 23 30 40 21 53 43 32 56 -9 6 -35 -7 -109 -54
l-23 -15 3 67 c4 73 -10 106 -30 69z"/>
<path d="M5955 1200 c-3 -5 1 -22 9 -37 8 -16 17 -36 20 -45 9 -28 36 -22 36
8 0 52 -46 105 -65 74z"/>
<path d="M6963 1183 c-15 -3 -23 -12 -23 -25 0 -18 4 -19 53 -13 56 8 73 17
63 34 -7 11 -49 13 -93 4z"/>
<path d="M7101 1166 c-10 -11 -3 -20 34 -45 46 -31 65 -33 65 -6 0 13 -65 65
-81 65 -4 0 -12 -6 -18 -14z"/>
<path d="M8087 1172 c-10 -14 20 -107 34 -107 19 0 22 26 9 74 -10 37 -31 53
-43 33z"/>
<path d="M4480 1107 c0 -58 4 -68 26 -60 10 3 14 22 14 59 0 47 -2 54 -20 54
-17 0 -20 -7 -20 -53z"/>
<path d="M5709 1131 c-32 -32 -38 -61 -14 -61 22 0 88 66 80 79 -11 19 -36 12
-66 -18z"/>
<path d="M6833 1124 c-33 -26 -42 -48 -23 -59 13 -8 90 54 90 72 0 21 -32 15
-67 -13z"/>
<path d="M5986 1052 c-3 -5 -8 -32 -12 -61 -6 -49 -5 -53 12 -49 32 6 46 118
15 118 -5 0 -12 -4 -15 -8z"/>
<path d="M7204 1034 c4 -15 10 -39 13 -55 4 -20 12 -29 24 -29 22 0 24 18 8
73 -7 27 -15 37 -31 37 -17 0 -19 -4 -14 -26z"/>
<path d="M5634 1004 c-17 -42 -15 -79 5 -79 15 0 44 82 36 103 -8 22 -26 12
-41 -24z"/>
<path d="M6784 1015 c-9 -23 4 -81 22 -96 26 -21 38 3 24 48 -7 21 -14 44 -16
51 -5 17 -23 15 -30 -3z"/>
<path d="M8107 1013 c-13 -21 -18 -101 -7 -108 19 -12 30 8 37 63 5 43 3 52
-10 52 -9 0 -18 -3 -20 -7z"/>
<path d="M4494 996 c-9 -23 20 -101 39 -104 20 -4 22 26 3 77 -14 39 -33 51
-42 27z"/>
<path d="M7221 892 c-5 -10 -11 -36 -13 -57 -2 -30 1 -40 14 -43 12 -2 19 9
27 48 6 29 9 56 5 61 -8 14 -22 11 -33 -9z"/>
<path d="M5918 855 c-16 -33 -19 -48 -11 -56 6 -6 16 -8 22 -4 17 10 53 84 46
95 -13 22 -36 8 -57 -35z"/>
<path d="M6851 876 c-10 -11 -5 -21 24 -50 20 -20 42 -36 50 -36 27 0 16 37
-20 69 -41 36 -39 35 -54 17z"/>
<path d="M5623 829 c7 -58 20 -80 38 -62 19 19 -2 107 -25 111 -17 4 -18 -1
-13 -49z"/>
<path d="M8036 832 c-31 -45 -33 -62 -7 -62 20 0 75 75 66 90 -12 19 -33 9
-59 -28z"/>
<path d="M4554 846 c-6 -15 21 -61 51 -86 12 -10 19 -10 27 -2 9 9 4 22 -19
54 -34 48 -50 57 -59 34z"/>
<path d="M6970 762 c0 -17 64 -62 89 -62 26 0 8 38 -28 58 -47 27 -61 28 -61
4z"/>
<path d="M5836 729 c-29 -32 -35 -43 -26 -54 15 -18 30 -11 62 31 24 32 28 64
8 64 -4 0 -24 -18 -44 -41z"/>
<path d="M7168 724 c-8 -18 -17 -24 -31 -20 -29 7 -34 -24 -6 -45 30 -23 89
-26 89 -4 0 9 -7 18 -15 21 -11 5 -12 11 -5 24 15 27 12 50 -5 50 -9 0 -21
-12 -27 -26z"/>
<path d="M7918 727 c-38 -22 -47 -40 -28 -52 15 -9 102 44 97 58 -6 20 -30 18
-69 -6z"/>
<path d="M4650 716 c0 -14 67 -76 83 -76 4 0 10 7 14 16 4 10 -6 26 -28 44
-37 31 -69 39 -69 16z"/>
<path d="M5664 715 c-4 -9 6 -34 21 -56 25 -39 26 -42 9 -60 -14 -15 -15 -22
-6 -31 10 -10 17 -10 33 0 12 8 22 12 23 10 24 -40 61 -78 77 -78 31 0 23 35
-17 69 -29 26 -33 35 -24 46 15 18 3 38 -20 32 -12 -3 -25 9 -43 39 -28 46
-44 54 -53 29z"/>
<path d="M9070 668 l0 -62 -39 38 c-25 25 -45 37 -55 33 -23 -9 -20 -19 19
-57 19 -19 35 -38 35 -42 0 -4 -32 -8 -71 -8 -62 0 -70 -2 -67 -17 2 -14 17
-19 66 -23 l62 -5 -45 -28 c-43 -28 -56 -49 -35 -62 5 -3 33 10 62 30 l53 35
5 -67 c4 -54 9 -68 23 -71 15 -3 17 5 17 62 0 36 4 66 9 66 6 0 22 -16 37 -35
26 -35 64 -47 64 -22 0 7 -16 32 -36 55 l-36 42 56 0 c49 0 56 3 56 19 0 16
-8 20 -42 23 l-43 3 43 29 c43 30 55 56 24 56 -9 0 -41 -16 -70 -35 l-52 -36
0 71 c0 63 -2 70 -20 70 -18 0 -20 -7 -20 -62z"/>
<path d="M7773 663 c-42 -14 -56 -36 -30 -46 20 -7 102 27 102 43 0 20 -22 21
-72 3z"/>
<path d="M7260 637 c0 -21 10 -26 64 -33 38 -6 46 -4 46 9 0 21 -6 24 -62 32
-40 6 -48 5 -48 -8z"/>
<path d="M4787 633 c-16 -15 -4 -34 34 -53 39 -21 69 -21 69 -1 0 5 -21 21
-46 35 -53 30 -49 28 -57 19z"/>
<path d="M7630 633 c-38 -5 -63 -20 -54 -34 7 -12 85 -11 103 0 14 9 9 42 -6
39 -4 0 -24 -3 -43 -5z"/>
<path d="M7421 616 c-17 -20 14 -36 68 -36 34 0 41 3 41 20 0 16 -7 20 -34 20
-19 0 -41 2 -49 5 -7 3 -19 -1 -26 -9z"/>
<path d="M7071 581 c-36 -45 -39 -61 -12 -61 23 0 75 66 67 85 -9 24 -22 18
-55 -24z"/>
<path d="M17872 586 c-35 -33 -37 -38 -37 -96 0 -58 2 -63 37 -96 31 -28 45
-34 83 -34 87 0 139 49 139 130 0 81 -52 130 -139 130 -38 0 -52 -6 -83 -34z
m144 -21 c34 -23 49 -69 34 -105 -17 -41 -46 -60 -91 -60 -29 0 -43 7 -63 31
-15 17 -26 43 -26 59 0 16 11 42 26 59 20 24 34 31 63 31 20 0 46 -7 57 -15z"/>
<path d="M4927 564 c-23 -23 6 -47 76 -61 22 -5 27 -2 27 14 0 14 -11 23 -37
32 -21 7 -43 14 -49 17 -5 2 -13 1 -17 -2z"/>
<path d="M5585 540 c-49 -23 -53 -46 -7 -44 38 2 85 30 79 47 -6 18 -28 17
-72 -3z"/>
<path d="M5076 513 c-23 -23 28 -53 92 -53 32 0 25 31 -8 40 -64 17 -77 19
-84 13z"/>
<path d="M5425 491 c-18 -4 -31 -14 -33 -25 -4 -17 1 -18 49 -13 55 7 76 18
65 36 -8 12 -33 12 -81 2z"/>
<path d="M6952 472 c-32 -27 -40 -46 -23 -56 13 -8 91 51 91 69 0 23 -32 17
-68 -13z"/>
<path d="M5233 473 c-8 -20 1 -25 55 -31 32 -3 52 0 57 8 11 18 -5 27 -58 33
-36 3 -50 1 -54 -10z"/>
<path d="M5866 472 c-7 -11 4 -25 42 -51 31 -22 62 -23 62 -2 0 12 -70 61 -87
61 -6 0 -14 -4 -17 -8z"/>
<path d="M6808 390 c-40 -21 -48 -37 -24 -46 21 -8 109 33 104 48 -7 20 -40
19 -80 -2z"/>
<path d="M6007 393 c-15 -14 -5 -30 28 -46 44 -21 75 -22 75 -2 0 22 -88 63
-103 48z"/>
<path d="M6660 337 c-45 -15 -48 -43 -3 -40 46 4 83 20 83 38 0 18 -30 19 -80
2z"/>
<path d="M6150 321 c0 -26 97 -52 111 -30 10 17 4 23 -40 38 -50 16 -71 14
-71 -8z"/>
<path d="M6510 311 c-31 -4 -45 -11 -45 -21 0 -17 81 -26 104 -11 14 9 9 42
-6 39 -4 0 -28 -4 -53 -7z"/>
<path d="M6305 300 c-12 -20 7 -30 61 -30 47 0 55 3 52 18 -2 13 -15 18 -55
20 -28 2 -54 -2 -58 -8z"/>
</g>
</svg>
